<svg width="28" height="28" viewBox="0 0 28 28" fill="none" xmlns="http://www.w3.org/2000/svg">
<path d="M10.2031 0.669239C9.67869 0.636051 9.15944 0.906405 8.89844 1.39841L7.1875 4.62497L3.59115 5.25518C2.85914 5.38318 2.36215 6.06866 2.46615 6.80466L2.97656 10.4192L0.437499 13.0416C-0.0798338 13.5763 -0.0798338 14.4236 0.437499 14.9583L2.97656 17.5833L2.46615 21.1979C2.36215 21.9339 2.85914 22.618 3.59115 22.7474L7.1875 23.3776L8.89844 26.6015C9.24644 27.2575 10.0534 27.5219 10.7214 27.1953L14 25.5911L17.2812 27.1927C17.9492 27.5193 18.7522 27.2575 19.1016 26.6015L20.8125 23.3776L24.4089 22.7474C25.1409 22.6194 25.6405 21.9313 25.5365 21.1953L25.026 17.5807L27.5651 14.9583C28.0784 14.425 28.0785 13.5763 27.5625 13.0416L25.0234 10.4166L25.5339 6.80205C25.6379 6.06605 25.1382 5.38191 24.4062 5.25257L20.8099 4.62236L19.099 1.39841C18.7523 0.743739 17.9479 0.480593 17.2812 0.80726L14 2.40882L10.7187 0.80726C10.5521 0.725593 10.3779 0.680301 10.2031 0.669239ZM10 7.3333C11.4733 7.3333 12.6667 8.52663 12.6667 9.99997C12.6667 11.4733 11.4733 12.6666 10 12.6666C8.52667 12.6666 7.33333 11.4733 7.33333 9.99997C7.33333 8.52663 8.52667 7.3333 10 7.3333ZM17.2005 8.06768L18.7995 9.26559L10.7995 19.9323L9.20052 18.7343L17.2005 8.06768ZM10 8.66663C9.64638 8.66663 9.30724 8.80711 9.05719 9.05716C8.80714 9.30721 8.66667 9.64635 8.66667 9.99997C8.66667 10.3536 8.80714 10.6927 9.05719 10.9428C9.30724 11.1928 9.64638 11.3333 10 11.3333C10.3536 11.3333 10.6928 11.1928 10.9428 10.9428C11.1929 10.6927 11.3333 10.3536 11.3333 9.99997C11.3333 9.64635 11.1929 9.30721 10.9428 9.05716C10.6928 8.80711 10.3536 8.66663 10 8.66663ZM18 15.3333C19.4733 15.3333 20.6667 16.5266 20.6667 18C20.6667 19.4733 19.4733 20.6666 18 20.6666C16.5267 20.6666 15.3333 19.4733 15.3333 18C15.3333 16.5266 16.5267 15.3333 18 15.3333ZM18 16.6666C17.6464 16.6666 17.3072 16.8071 17.0572 17.0572C16.8071 17.3072 16.6667 17.6463 16.6667 18C16.6667 18.3536 16.8071 18.6927 17.0572 18.9428C17.3072 19.1928 17.6464 19.3333 18 19.3333C18.3536 19.3333 18.6928 19.1928 18.9428 18.9428C19.1929 18.6927 19.3333 18.3536 19.3333 18C19.3333 17.6463 19.1929 17.3072 18.9428 17.0572C18.6928 16.8071 18.3536 16.6666 18 16.6666Z" fill="white"/>
</svg>
