<svg width="64" height="64" viewBox="0 0 64 64" fill="none" xmlns="http://www.w3.org/2000/svg">
<circle cx="32" cy="32" r="32" fill="#C94B23"/>
<path d="M15.21 41.69L15.84 43.13C16.38 42.86 16.92 42.68 17.46 42.5L16.92 41.06C16.38 41.24 15.75 41.42 15.21 41.69ZM11.97 20.18L12.87 21.53C13.32 21.17 13.86 20.9 14.4 20.63L13.59 19.28C12.96 19.46 12.42 19.82 11.97 20.18ZM11.97 31.88L12.87 33.23C13.32 32.87 13.86 32.6 14.4 32.33L13.59 30.98C12.96 31.16 12.42 31.52 11.97 31.88ZM15.21 29.99L15.84 31.43C16.38 31.16 16.92 30.98 17.46 30.8L16.92 29.36C16.38 29.54 15.75 29.72 15.21 29.99ZM9 45.83L10.08 47C10.08 47 10.53 46.55 11.43 45.92L10.44 44.66C9.54 45.29 9 45.83 9 45.83ZM15.21 18.29L15.84 19.73C16.38 19.46 16.92 19.28 17.46 19.1L16.92 17.66C16.38 17.84 15.75 18.02 15.21 18.29ZM9 34.13L10.08 35.3C10.08 35.3 10.53 34.85 11.43 34.22L10.44 32.96C9.54 33.59 9 34.13 9 34.13ZM9 22.43L10.08 23.6C10.08 23.6 10.53 23.15 11.43 22.52L10.44 21.26C9.54 21.89 9 22.43 9 22.43ZM11.97 43.58L12.87 44.93C13.32 44.57 13.86 44.3 14.4 44.03L13.59 42.68C12.96 42.86 12.42 43.22 11.97 43.58ZM25.92 18.47C26.46 18.56 27.09 18.65 27.63 18.74L27.99 17.21C27.36 17.12 26.82 16.94 26.19 16.94L25.92 18.47ZM22.5 18.2C23.13 18.2 23.67 18.2 24.21 18.29L24.3 16.76C23.67 16.76 23.13 16.67 22.41 16.67L22.5 18.2ZM25.92 30.17C26.46 30.26 27.09 30.35 27.63 30.44L27.99 28.91C27.36 28.82 26.82 28.64 26.19 28.64L25.92 30.17ZM25.92 41.87C26.46 41.96 27.09 42.05 27.63 42.14L27.99 40.61C27.36 40.52 26.82 40.34 26.19 40.34L25.92 41.87ZM52.47 34.22L54.63 28.1C54.72 27.83 54.72 27.56 54.54 27.38C54.36 27.2 54.18 27.02 53.91 27.02L47.61 27.2V28.73L51.75 28.64C49.95 29.9 45.81 32.6 41.94 32.6C39.15 32.6 37.17 32.15 35.46 31.52V21.53C37.17 22.07 39.24 22.52 41.94 22.52C45.9 22.52 50.04 20.18 52.11 18.65L51.03 21.98L52.56 22.52L54.72 16.4C54.81 16.13 54.81 15.86 54.63 15.68C54.45 15.5 54.27 15.32 54 15.32L47.7 15.5V17.03L51.84 16.94C50.04 18.2 45.9 20.9 42.03 20.9C39.24 20.9 37.26 20.45 35.55 19.82V12.62C35.55 11.72 34.83 11 33.93 11H31.23C30.33 11 29.61 11.72 29.61 12.62V18.11L29.34 19.19C29.43 19.19 29.52 19.28 29.61 19.28V29.81L29.34 30.89C29.43 30.89 29.52 30.98 29.61 30.98V41.51L29.34 42.59C29.43 42.59 29.52 42.68 29.61 42.68V51.32C29.61 52.22 30.33 52.94 31.23 52.94H33.93C34.83 52.94 35.55 52.22 35.55 51.32V44.93C37.26 45.47 39.33 45.92 42.03 45.92C45.99 45.92 50.13 43.58 52.2 42.05L51.03 45.38L52.56 45.92L54.72 39.8C54.81 39.53 54.81 39.26 54.63 39.08C54.45 38.9 54.27 38.72 54 38.72L47.7 38.9V40.43L51.84 40.34C50.04 41.6 45.9 44.3 42.03 44.3C39.24 44.3 37.26 43.85 35.55 43.22V33.23C37.26 33.77 39.33 34.22 42.03 34.22C45.99 34.22 50.13 31.88 52.2 30.35L51.03 33.68L52.47 34.22ZM33.93 51.32H31.23V12.62H33.93V51.32ZM18.72 40.43L19.08 41.96C19.62 41.78 20.25 41.69 20.79 41.69L20.61 40.16C19.98 40.16 19.35 40.34 18.72 40.43ZM18.72 28.73L19.08 30.26C19.62 30.08 20.25 29.99 20.79 29.99L20.61 28.46C19.98 28.46 19.35 28.64 18.72 28.73ZM22.5 29.9C23.13 29.9 23.67 29.9 24.21 29.99L24.3 28.46C23.67 28.46 23.13 28.37 22.41 28.37L22.5 29.9ZM18.72 17.03L19.08 18.56C19.62 18.38 20.25 18.29 20.79 18.29L20.61 16.76C19.98 16.76 19.35 16.94 18.72 17.03ZM22.5 41.6C23.13 41.6 23.67 41.6 24.21 41.69L24.3 40.16C23.67 40.16 23.13 40.07 22.41 40.07L22.5 41.6Z" fill="white"/>
</svg>
