<svg width="64" height="64" viewBox="0 0 64 64" fill="none" xmlns="http://www.w3.org/2000/svg">
<circle cx="32" cy="32" r="32" fill="#C94B23"/>
<path d="M39.62 23.29H23.6V37.51H39.62V23.29ZM38 35.89H25.22V24.91H38.09V35.89H38ZM36.02 26.8H34.4V33.91H36.02V26.8ZM32.42 28.78H30.8V34H32.42V28.78ZM28.82 30.4H27.2V34H28.82V30.4ZM31.61 43.09C29.18 43.09 27.2 45.07 27.2 47.5C27.2 49.93 29.18 51.91 31.61 51.91C34.04 51.91 36.02 49.93 36.02 47.5C36.02 45.07 34.04 43.09 31.61 43.09ZM31.61 50.29C30.08 50.29 28.82 49.03 28.82 47.5C28.82 45.97 30.08 44.71 31.61 44.71C33.14 44.71 34.4 45.97 34.4 47.5C34.4 49.03 33.14 50.29 31.61 50.29ZM28.01 39.49H23.51V41.11H28.01V39.49ZM35.21 41.11H39.71V39.49H35.21V41.11ZM33.41 41.11V39.49H29.81V41.11H33.41ZM41.6 19.69H21.62C20.72 19.69 20 20.41 20 21.4V47.5C20 52.36 25.22 56.41 31.61 56.41C38 56.41 43.22 52.45 43.22 47.5V21.4C43.22 20.5 42.5 19.69 41.6 19.69ZM41.6 47.5C41.6 51.55 37.1 54.79 31.61 54.79C26.12 54.79 21.62 51.55 21.62 47.5V21.4C21.62 21.31 21.62 21.31 21.62 21.31H41.51C41.51 21.31 41.6 21.31 41.6 21.4V47.5ZM31.61 8.62C35.12 8.62 38.36 9.61 41.06 11.59L41.96 10.33C38.99 8.17 35.39 7 31.61 7C27.83 7 24.23 8.08 21.26 10.15L22.16 11.5C24.86 9.61 28.1 8.62 31.61 8.62ZM39.62 12.94C37.28 11.41 34.58 10.6 31.61 10.6C28.64 10.6 25.94 11.41 23.6 12.94L24.5 14.29C26.48 12.94 29 12.22 31.61 12.22C34.22 12.22 36.65 12.94 38.72 14.29L39.62 12.94ZM26.12 15.64L26.93 16.99C28.28 16.18 29.81 15.73 31.61 15.73C33.41 15.73 34.94 16.18 36.29 16.99L37.1 15.64C35.48 14.74 33.68 14.2 31.61 14.2C29.54 14.2 27.74 14.74 26.12 15.64Z" fill="white"/>
</svg>
