<svg width="64" height="64" viewBox="0 0 64 64" fill="none" xmlns="http://www.w3.org/2000/svg">
<circle cx="32" cy="32" r="32" fill="#C94B23"/>
<path d="M15.42 26.62C15.42 26.35 15.42 26.08 15.42 25.81H12V27.43H15.51C15.51 27.16 15.42 26.89 15.42 26.62ZM24.33 12.13L22.62 9.16L21.27 9.97L22.98 12.94C23.34 12.67 23.79 12.4 24.33 12.13ZM48 26.62C48 26.89 48 27.07 48 27.34H51.42V25.72H47.91C47.91 26.08 48 26.35 48 26.62ZM42.24 9.97L40.89 9.16L39.18 12.13C39.63 12.4 40.08 12.67 40.53 12.94L42.24 9.97ZM32.52 10.42V7H30.9V10.42C31.17 10.42 31.44 10.42 31.71 10.42C31.98 10.33 32.25 10.42 32.52 10.42ZM31.71 13.3C24.33 13.3 18.3 19.42 18.3 26.98C18.3 31.39 19.47 34.27 23.07 38.68C24.06 39.94 25.23 42.01 25.23 43.54C25.23 43.81 25.32 43.99 25.5 44.17V52.45C25.5 53.17 25.95 53.89 26.58 54.16V54.25L26.67 54.16C26.76 54.16 26.76 54.16 26.85 54.25C27.39 54.88 28.74 56.14 31.71 56.14C34.68 56.14 36.03 54.97 36.57 54.25C37.38 54.07 37.92 53.35 37.92 52.45V44.17C38.1 43.99 38.19 43.81 38.19 43.54C38.19 42.01 39.27 39.94 40.35 38.68C43.95 34.27 45.12 31.3 45.12 26.98C45.12 19.42 39.09 13.3 31.71 13.3ZM36.39 52.54C36.39 52.72 36.3 52.81 36.12 52.81C35.85 52.81 35.58 52.99 35.4 53.26C35.4 53.35 34.59 54.61 31.71 54.61C29.82 54.61 28.83 54.07 28.38 53.62L36.39 50.38V52.54ZM36.39 48.76L27.03 52.54V49.93L36.39 46.15V48.76ZM36.39 44.44L27.03 48.22V44.44H36.39ZM31.71 31.93C32.97 31.93 34.32 30.76 34.32 28.42C34.32 27.43 33.87 26.44 33.24 25.63C34.68 25.36 36.39 26.98 36.39 28.42V30.22C36.39 31.48 35.76 34 35.04 36.43C34.32 38.95 33.69 41.38 33.69 42.91H29.82C29.82 41.47 29.1 39.04 28.47 36.43C27.84 34 27.12 31.48 27.12 30.22V28.42C27.12 26.98 28.74 25.36 30.27 25.63C29.55 26.44 29.19 27.43 29.19 28.42C29.1 30.67 30.45 31.93 31.71 31.93ZM30.72 28.42C30.72 27.7 31.17 26.89 31.71 26.35C32.34 26.89 32.7 27.61 32.7 28.42C32.7 30.94 30.72 30.94 30.72 28.42ZM39.09 37.69C38.82 37.96 37.02 40.3 36.66 42.82H35.13C35.22 41.56 35.85 39.13 36.48 36.79C37.2 34.18 37.83 31.66 37.83 30.22V28.24V28.15C37.65 25.99 35.58 24.01 33.42 24.01C32.79 24.01 32.16 24.19 31.62 24.46C31.08 24.19 30.45 24.01 29.82 24.01C27.66 24.01 25.59 25.99 25.41 28.15V28.24V30.22C25.41 31.66 26.04 34.18 26.76 36.79C27.39 39.13 28.02 41.56 28.11 42.82H26.58C26.31 40.84 24.96 38.68 24.15 37.69C20.82 33.55 19.74 30.94 19.74 26.98C19.74 20.14 24.96 14.83 31.62 14.83C38.28 14.83 43.5 20.14 43.5 26.98C43.59 30.94 42.51 33.55 39.09 37.69ZM49.08 17.44L48.27 16.09L45.3 17.8C45.57 18.25 45.84 18.7 46.11 19.15L49.08 17.44ZM14.34 35.71L15.15 37.06L18.03 35.35C17.76 34.9 17.49 34.45 17.22 34L14.34 35.71ZM14.34 17.44L17.31 19.15C17.58 18.7 17.85 18.25 18.12 17.8L15.15 16.09L14.34 17.44ZM45.39 35.35L48.27 37.06L49.08 35.71L46.2 34C45.93 34.54 45.66 34.99 45.39 35.35Z" fill="white"/>
</svg>
