<svg width="64" height="64" viewBox="0 0 64 64" fill="none" xmlns="http://www.w3.org/2000/svg">
<circle cx="32" cy="32" r="32" fill="#C94B23"/>
<path d="M52.5892 27.9053L47.495 25.2761L52.5892 22.6468C52.8357 22.4825 53 22.3181 53 21.9895C53 21.6608 52.8357 21.4965 52.5892 21.3322L32.8697 11.0616C32.6232 10.9795 32.3768 10.9795 32.2124 11.0616L12.493 21.3322C12.2465 21.4965 12.0822 21.6608 12.0822 21.9895C12.0822 22.3181 12.2465 22.4825 12.493 22.6468L17.5872 25.2761L12.493 27.9053C12.2465 28.0696 12.0822 28.234 12.0822 28.5626C12.0822 28.727 12.1643 28.8913 12.2465 28.9734H12.0822V35.1358C12.0822 35.3823 12.2465 35.6288 12.4108 35.7931L17.3407 38.5867L12.4108 41.1338C12.1643 41.2981 12 41.4624 12 41.7911C12 42.1197 12.1643 42.2841 12.4108 42.4484L32.1303 52.7189C32.2124 52.8011 32.3768 52.8011 32.4589 52.8011C32.5411 52.8011 32.7054 52.8011 32.7876 52.7189L52.507 42.4484C52.7535 42.2841 52.9178 42.1197 52.9178 41.7911C52.9178 41.4624 52.7535 41.2981 52.507 41.1338L47.5772 38.5867L52.507 35.7931C52.7535 35.6288 52.8357 35.4644 52.8357 35.1358V28.9734H52.6713C52.7535 28.8913 52.8357 28.727 52.8357 28.5626C53 28.3161 52.8357 28.0696 52.5892 27.9053ZM14.3828 21.9895L32.5411 12.5406L50.6994 21.9895L32.5411 31.4384L14.3828 21.9895ZM17.012 36.6969L13.5611 34.725V29.7951L17.0942 31.6027V36.6969H17.012ZM50.6994 41.7089L32.5411 51.1578L14.3828 41.7089L18.9018 39.3262L32.2124 46.8031C32.2946 46.8853 32.4589 46.8853 32.5411 46.8853C32.6232 46.8853 32.7876 46.8853 32.8697 46.8031L46.1804 39.3262L50.6994 41.7089ZM18.491 37.5185V32.3422L22.024 34.1498V39.4905L18.491 37.5185ZM23.4208 40.23V34.8893L26.9539 36.6969V42.2019L23.4208 40.23ZM36.8958 42.9414L33.1984 44.9955V39.244L36.7315 37.4364V42.9414H36.8958ZM31.8016 44.9955L28.1864 42.9414H28.3507V37.4364L31.8838 39.244V44.9955H31.8016ZM38.2104 42.2019V36.6969L41.7435 34.8893V40.23L38.2104 42.2019ZM43.1403 39.4905V34.1498L46.6733 32.3422V37.5185L43.1403 39.4905ZM32.5411 38.0115L14.3828 28.5626L19.1483 26.0977L32.2124 32.9173C32.2946 32.9995 32.4589 32.9995 32.5411 32.9995C32.6232 32.9995 32.7876 32.9995 32.8697 32.9173L45.9339 26.0977L50.6994 28.5626L32.5411 38.0115ZM51.521 34.725L47.988 36.6969V31.6027L51.521 29.7951V34.725Z" fill="white"/>
</svg>
