<svg width="32" height="32" viewBox="0 0 32 32" fill="none" xmlns="http://www.w3.org/2000/svg">
<path d="M10.6987 12.8693C10.784 17.0293 12.864 19.5253 16.512 19.5253H16.7253V17.1467C18.064 17.28 19.0773 18.2613 19.4827 19.5253H21.376C21.1818 18.8071 20.8376 18.1381 20.366 17.5626C19.8943 16.9872 19.3061 16.5182 18.64 16.1866C19.2369 15.8232 19.7524 15.3405 20.1543 14.7688C20.5563 14.1971 20.836 13.5487 20.976 12.864H19.2587C18.8853 14.1866 17.776 15.3867 16.7253 15.4986V12.8693H15.0027V17.4773C13.936 17.2106 12.592 15.92 12.5333 12.8693H10.6987Z" fill="black"/>
<path fill-rule="evenodd" clip-rule="evenodd" d="M16 0C24.8366 0 32 7.16344 32 16C32 24.8366 24.8366 32 16 32C7.16344 32 0 24.8366 0 16C0 7.16344 7.16344 0 16 0ZM8 15.68C8 12.0587 8 10.2507 9.12 9.12C10.256 8 12.064 8 15.68 8H16.32C19.9413 8 21.7493 8 22.88 9.12C24 10.256 24 12.064 24 15.68V16.32C24 19.9413 24 21.7493 22.88 22.88C21.744 24 19.936 24 16.32 24H15.68C12.0587 24 10.2507 24 9.12 22.88C8 21.744 8 19.936 8 16.32V15.68Z" fill="black"/>
</svg>
