<svg width="64" height="64" viewBox="0 0 64 64" fill="none" xmlns="http://www.w3.org/2000/svg">
<path d="M63.3587 25.883L55.4068 21.8575L63.3587 17.8319C63.7435 17.5803 64 17.3287 64 16.8256C64 16.3224 63.7435 16.0708 63.3587 15.8192L32.5772 0.0943489C32.1924 -0.0314496 31.8076 -0.0314496 31.5511 0.0943489L0.76954 15.8192C0.38477 16.0708 0.128257 16.3224 0.128257 16.8256C0.128257 17.3287 0.38477 17.5803 0.76954 17.8319L8.72144 21.8575L0.76954 25.883C0.38477 26.1346 0.128257 26.3862 0.128257 26.8894C0.128257 27.141 0.256513 27.3926 0.38477 27.5184H0.128257V36.9533C0.128257 37.3307 0.38477 37.7081 0.641283 37.9597L8.33667 42.2369L0.641283 46.1366C0.256513 46.3882 0 46.6398 0 47.143C0 47.6462 0.256513 47.8978 0.641283 48.1494L31.4228 63.8742C31.5511 64 31.8076 64 31.9359 64C32.0641 64 32.3206 64 32.4489 63.8742L63.2305 48.1494C63.6152 47.8978 63.8717 47.6462 63.8717 47.143C63.8717 46.6398 63.6152 46.3882 63.2305 46.1366L55.5351 42.2369L63.2305 37.9597C63.6152 37.7081 63.7435 37.4565 63.7435 36.9533V27.5184H63.487C63.6152 27.3926 63.7435 27.141 63.7435 26.8894C64 26.512 63.7435 26.1346 63.3587 25.883ZM3.71944 16.8256L32.0641 2.35872L60.4088 16.8256L32.0641 31.2924L3.71944 16.8256ZM7.82365 39.3435L2.43687 36.3243V28.7764L7.9519 31.544V39.3435H7.82365ZM60.4088 47.0172L32.0641 61.484L3.71944 47.0172L10.7735 43.369L31.5511 54.8167C31.6794 54.9425 31.9359 54.9425 32.0641 54.9425C32.1924 54.9425 32.4489 54.9425 32.5772 54.8167L53.3547 43.369L60.4088 47.0172ZM10.1323 40.6015V32.6762L15.6473 35.4437V43.6206L10.1323 40.6015ZM17.8277 44.7528V36.5759L23.3427 39.3435V47.772L17.8277 44.7528ZM38.8617 48.9042L33.0902 52.0491V43.2432L38.6052 40.4757V48.9042H38.8617ZM30.9098 52.0491L25.2665 48.9042H25.523V40.4757L31.0381 43.2432V52.0491H30.9098ZM40.9138 47.772V39.3435L46.4289 36.5759V44.7528L40.9138 47.772ZM48.6092 43.6206V35.4437L54.1242 32.6762V40.6015L48.6092 43.6206ZM32.0641 41.3563L3.71944 26.8894L11.1583 23.1155L31.5511 33.5568C31.6794 33.6826 31.9359 33.6826 32.0641 33.6826C32.1924 33.6826 32.4489 33.6826 32.5772 33.5568L52.9699 23.1155L60.4088 26.8894L32.0641 41.3563ZM61.6914 36.3243L56.1763 39.3435V31.544L61.6914 28.7764V36.3243Z" fill="black"/>
</svg>
