<svg width="50" height="39" viewBox="0 0 50 39" fill="none" xmlns="http://www.w3.org/2000/svg">
<path d="M47.323 27.9442V26.8996C47.323 25.7679 46.5458 24.8103 45.5959 24.4621C45.5959 24.375 45.5959 24.375 45.5959 24.2879C45.5959 13.058 40.4145 5.13616 31.3471 2.61161C31.5199 2.17634 31.6926 2.00223 31.6926 2.00223C31.8653 1.65402 31.7789 1.21875 31.5199 0.957589C31.1744 0.696429 29.8791 0 24.9568 0C20.0345 0 18.7392 0.696429 18.3938 0.957589C18.0484 1.21875 18.0484 1.65402 18.2211 2.00223C18.2211 2.00223 18.3938 2.26339 18.5665 2.61161C9.49914 5.13616 4.31779 13.058 4.31779 24.2879C4.31779 24.375 4.31779 24.4621 4.31779 24.4621C3.28152 24.7232 2.59067 25.7679 2.59067 26.8996V27.9442C0.863558 28.7277 0 29.8594 0 31.2522C0 38.6518 24.6978 39 24.9568 39C30.0518 39 50 36.9978 50 31.2522C50 29.8594 49.0501 28.7277 47.323 27.9442ZM30.9154 4.09152C32.4698 4.52679 33.8515 5.13616 35.1468 5.83259C34.3696 6.79018 32.5561 9.66295 31.0881 15.3214C31.0017 15.7567 31.2608 16.192 31.6062 16.279C31.6926 16.279 31.7789 16.279 31.7789 16.279C32.1244 16.279 32.4698 16.0179 32.5561 15.6696C34.0242 10.0112 35.924 7.3125 36.4421 6.61607C41.3644 10.1853 44.0415 16.279 44.0415 24.2009V24.2879H32.6425V24.2009C32.6425 21.154 30.9154 18.5424 28.3247 17.2366C28.3247 10.9688 29.7064 6.35491 30.7427 3.91741C30.829 4.00446 30.829 4.09152 30.9154 4.09152ZM24.9568 1.56696C27.7202 1.56696 29.1883 1.82812 29.8791 2.00223C28.9292 3.91741 26.8566 9.14062 26.7703 16.8013C26.1658 16.6272 25.5613 16.5402 24.9568 16.5402C24.3523 16.5402 23.7478 16.6272 23.1433 16.8013C23.057 9.05357 20.9845 3.91741 20.0345 2.00223C20.7254 1.82812 22.1934 1.56696 24.9568 1.56696ZM13.3851 6.79018C13.9896 7.57366 15.9758 10.3594 17.3575 15.8438C17.4439 16.192 17.7893 16.4531 18.1347 16.4531C18.2211 16.4531 18.3074 16.4531 18.3074 16.4531C18.7392 16.3661 18.9983 15.9308 18.8256 15.4955C17.4439 9.92411 15.544 6.96429 14.6805 5.91964C16.0622 5.13616 17.5302 4.43973 19.171 4.00446C20.1209 6.44196 21.5889 11.0558 21.5889 17.3237C18.9983 18.5424 17.2712 21.2411 17.2712 24.2879V24.375H5.87219V24.2879C5.87219 16.4531 8.54922 10.3594 13.3851 6.79018ZM4.14508 26.8996C4.14508 26.3772 4.57686 25.942 5.00864 25.942H18.0484C18.4801 25.942 18.8256 25.5938 18.8256 25.1585V24.2879C18.8256 20.8929 21.5889 18.1071 24.9568 18.1071C28.3247 18.1071 31.0881 20.8929 31.0881 24.2879V25.1585C31.0881 25.5938 31.4335 25.942 31.8653 25.942H44.905C45.4231 25.942 45.7686 26.3772 45.7686 26.8996V30.0335C44.8186 30.3817 40.8463 31.3393 25.3022 31.3393C9.58549 31.3393 5.18135 30.3817 4.14508 30.0335V26.8996ZM24.9568 37.433C15.1986 37.433 1.5544 35.0826 1.5544 31.2522C1.5544 30.9911 1.5544 30.3817 2.59067 29.6853V30.4688C2.59067 30.6429 2.67703 30.904 2.84974 30.9911C3.28152 31.4263 6.30397 32.9062 25.3022 32.9062C38.601 32.9062 46.3731 32.2098 47.2366 30.904C47.323 30.817 47.323 30.6429 47.323 30.4688V29.6853C48.4456 30.3817 48.4456 30.9911 48.4456 31.2522C48.4456 34.4732 33.7651 37.433 24.9568 37.433Z" fill="black"/>
</svg>
