<svg width="78" height="78" viewBox="0 0 78 78" fill="none" xmlns="http://www.w3.org/2000/svg">
<path d="M54.3438 37.6563L33.2344 23.2188C32.5781 22.7344 30.8281 22.7344 30.6875 24.5626V53.4376C30.8438 55.2657 32.625 55.2969 33.2344 54.7813L54.3438 40.3438C54.8906 40.0157 55.6406 38.6719 54.3438 37.6563ZM33.9531 50.3594V27.6407L50.5312 39.0001L33.9531 50.3594Z" fill="white"/>
<path d="M39 0.71875C17.8906 0.71875 0.71875 17.8906 0.71875 39C0.71875 60.1094 17.8906 77.2812 39 77.2812C60.1094 77.2812 77.2812 60.1094 77.2812 39C77.2812 17.8906 60.1094 0.71875 39 0.71875ZM39 74.0156C19.6875 74.0156 3.98438 58.3125 3.98438 39C3.98438 19.6875 19.6875 3.98438 39 3.98438C58.3125 3.98438 74.0156 19.6875 74.0156 39C74.0156 58.3125 58.3125 74.0156 39 74.0156Z" fill="white"/>
</svg>
