<svg width="22" height="22" viewBox="0 0 22 22" fill="none" xmlns="http://www.w3.org/2000/svg">
<path d="M1.03 17.33C1.03 17.69 1.11 18.06 1.28 18.42C1.45 18.78 1.67 19.12 1.96 19.44C2.45 19.98 2.99 20.37 3.6 20.62C4.2 20.87 4.85 21 5.55 21C6.57 21 7.66 20.76 8.81 20.27C9.96 19.78 11.11 19.12 12.25 18.29C13.4 17.45 14.49 16.52 15.53 15.49C16.56 14.45 17.49 13.36 18.32 12.22C19.14 11.08 19.8 9.94 20.28 8.81C20.76 7.67 21 6.58 21 5.54C21 4.86 20.88 4.21 20.64 3.61C20.4 3 20.02 2.44 19.49 1.94C18.85 1.31 18.15 1 17.41 1C17.13 1 16.85 1.06 16.6 1.18C16.34 1.3 16.11 1.48 15.93 1.74L13.61 5.01C13.43 5.26 13.3 5.49 13.21 5.71C13.12 5.92 13.07 6.13 13.07 6.32C13.07 6.56 13.14 6.8 13.28 7.03C13.41 7.26 13.6 7.5 13.84 7.74L14.6 8.53C14.71 8.64 14.76 8.77 14.76 8.93C14.76 9.01 14.75 9.08 14.73 9.16C14.7 9.24 14.67 9.3 14.65 9.36C14.47 9.69 14.16 10.12 13.72 10.64C13.27 11.16 12.79 11.69 12.27 12.22C11.73 12.75 11.21 13.24 10.68 13.69C10.16 14.13 9.73 14.43 9.39 14.61C9.34 14.63 9.28 14.66 9.21 14.69C9.13 14.72 9.05 14.73 8.96 14.73C8.79 14.73 8.66 14.67 8.55 14.56L7.79 13.81C7.54 13.56 7.3 13.37 7.07 13.25C6.84 13.11 6.61 13.04 6.36 13.04C6.17 13.04 5.97 13.08 5.75 13.17C5.53 13.26 5.3 13.39 5.05 13.56L1.74 15.91C1.48 16.09 1.3 16.3 1.19 16.55C1.09 16.8 1.03 17.05 1.03 17.33Z" stroke="white" stroke-width="1.5" stroke-miterlimit="10"/>
<path d="M4.5 8C4.5 7.4 4.97 6.48 5.67 5.73C6.31 5.04 7.16 4.5 8 4.5" stroke="white" stroke-width="1.5" stroke-linecap="round" stroke-linejoin="round"/>
<path d="M1 8C1 4.13 4.13 1 8 1" stroke="white" stroke-width="1.5" stroke-linecap="round" stroke-linejoin="round"/>
</svg>
