<svg width="64" height="64" viewBox="0 0 64 64" fill="none" xmlns="http://www.w3.org/2000/svg">
<circle cx="32" cy="32" r="32" fill="#C94B23"/>
<path d="M32.5 10C20.1208 10 10 20.1208 10 32.5C10 44.8792 20.1208 55 32.5 55C44.8792 55 55 44.8792 55 32.5C55 20.1208 44.8792 10 32.5 10ZM32.5 53.4944C20.8736 53.4944 11.5056 44.0428 11.5056 32.5C11.5056 20.9572 20.8736 11.5056 32.5 11.5056C44.1264 11.5056 53.4944 20.8736 53.4944 32.5C53.4944 44.1264 44.1264 53.4944 32.5 53.4944ZM38.1041 37.6022C36.5985 32.6673 33.5874 25.7249 33.1691 24.6375C33.0855 24.3866 32.7509 24.2193 32.5 24.2193C32.1654 24.2193 31.9145 24.3866 31.8309 24.6375C31.4126 25.6413 28.4015 32.6673 26.8959 37.6022H13.9312L14.2658 38.5223C16.7751 46.4684 24.1357 51.6543 32.5836 51.6543C41.0316 51.6543 48.3922 46.4684 50.9015 38.5223L51.2361 37.6022H38.1041ZM32.5 26.8123C34.3401 31.329 37.5186 39.526 37.5186 41.7007C37.5186 44.5446 35.2602 46.803 32.4164 46.803C29.5725 46.803 27.3141 44.5446 27.3141 41.7007C27.3978 39.526 30.5762 31.329 32.5 26.8123ZM32.5836 50.1487C25.1394 50.1487 18.5316 45.7993 15.9387 39.0242H26.3941C26.0595 40.1115 25.8922 41.1152 25.8922 41.7007C25.8922 45.2974 28.8197 48.2249 32.4164 48.2249C36.013 48.2249 38.9405 45.2974 38.9405 41.7007C38.9405 41.1152 38.7732 40.1115 38.4387 39.0242H49.2286C46.6357 45.8829 40.0279 50.1487 32.5836 50.1487ZM19.9535 24.7212L22.1283 26.3104L22.9647 25.1394L20.8736 23.6338C21.5428 22.7974 22.3792 22.0446 23.2156 21.4591L24.052 22.5465L25.223 21.71L24.4703 20.6227C25.3903 20.0372 26.3104 19.5353 27.3141 19.2007L27.7323 20.4554L29.1543 20.0372L28.7361 18.7825C29.7398 18.5316 30.8271 18.3643 31.8309 18.2807V20.79H33.3364V18.1134C34.4238 18.1134 35.5112 18.2807 36.5149 18.5316L35.9294 19.9535L37.3513 20.3717L37.7695 18.9498C38.7732 19.2844 39.7769 19.7862 40.697 20.2881L39.7769 21.6264L40.948 22.4628L41.868 21.2082C42.7045 21.8773 43.5409 22.6301 44.2937 23.4665L41.9517 25.1394L42.7881 26.3104L45.1301 24.5539C45.2138 24.6375 45.2138 24.7212 45.2974 24.8048L46.4684 23.9684C43.29 19.368 38.1041 16.6078 32.5 16.6078C26.8959 16.6078 21.71 19.368 18.5316 23.9684L19.9535 24.7212C19.9535 24.8048 19.9535 24.7212 19.9535 24.7212ZM32.5 44.9628C34.2565 44.9628 35.7621 43.5409 35.7621 41.7007C35.7621 39.9442 34.3401 38.4387 32.5 38.4387C30.6599 38.4387 29.2379 39.8606 29.2379 41.7007C29.2379 43.4572 30.7435 44.9628 32.5 44.9628ZM32.5 39.9442C33.5037 39.9442 34.2565 40.7807 34.2565 41.7007C34.2565 42.7045 33.4201 43.4572 32.5 43.4572C31.5799 43.4572 30.7435 42.6208 30.7435 41.7007C30.7435 40.697 31.4963 39.9442 32.5 39.9442Z" fill="white"/>
</svg>
