<svg width="64" height="64" viewBox="0 0 64 64" fill="none" xmlns="http://www.w3.org/2000/svg">
<circle cx="32" cy="32" r="32" fill="#C94B23"/>
<path d="M36.3091 19.81C35.9491 19.63 35.5891 19.72 35.3191 19.99L24.8791 32.86C24.6991 33.13 24.6091 33.4 24.7891 33.67C24.8791 33.94 25.1491 34.12 25.5091 34.12L30.2791 34.21L26.8591 43.03C26.6791 43.39 26.8591 43.75 27.2191 44.02C27.3091 44.11 27.4891 44.11 27.5791 44.11C27.7591 44.11 28.0291 44.02 28.2091 43.84L39.1891 31.24C39.3691 30.97 39.4591 30.7 39.2791 30.43C39.1891 30.16 38.8291 29.98 38.5591 29.98H33.1591L36.6691 20.8C36.8491 20.44 36.6691 20.08 36.3091 19.81ZM31.2691 30.43C31.1791 30.7 31.1791 30.97 31.3591 31.15C31.5391 31.33 31.7191 31.51 31.9891 31.51H36.7591L29.8291 39.61L32.0791 33.85C32.1691 33.58 32.1691 33.31 31.9891 33.13C31.8091 32.95 31.6291 32.77 31.3591 32.77H27.1291L33.4291 24.94L31.2691 30.43ZM57.1891 31.15C57.0091 30.88 56.7391 30.7 56.4691 30.7H54.4891C53.5891 19 43.9591 10 32.1691 10C24.4291 10 17.3191 13.96 13.1791 20.53L14.5291 21.34C18.3991 15.22 24.9691 11.62 32.1691 11.62C43.3291 11.62 52.5091 20.35 52.9591 31.6C52.9591 32.05 53.3191 32.32 53.7691 32.32H54.9391L51.9691 36.46L48.9991 32.32H50.0791C50.2591 32.32 50.5291 32.23 50.6191 32.05C50.7991 31.87 50.8891 31.69 50.7991 31.51C50.4391 21.43 42.1591 13.6 32.1691 13.6C29.1091 13.6 26.0491 14.32 23.4391 15.76L24.1591 17.11C26.5891 15.85 29.3791 15.13 32.1691 15.13C41.0791 15.13 48.4591 21.88 49.2691 30.7H47.4691C47.1991 30.7 46.9291 30.88 46.7491 31.15C46.6591 31.42 46.6591 31.69 46.8391 31.96L51.3391 38.26C51.5191 38.44 51.6991 38.62 51.9691 38.62C52.2391 38.62 52.4191 38.53 52.5991 38.26L57.0991 31.96C57.2791 31.69 57.2791 31.42 57.1891 31.15ZM32.0791 53.29C20.9191 53.29 11.7391 44.56 11.2891 33.31C11.2891 32.86 10.9291 32.59 10.4791 32.59H9.30912L12.2791 28.45L15.2491 32.59H14.1691C13.9891 32.59 13.7191 32.68 13.6291 32.86C13.4491 33.04 13.3591 33.22 13.4491 33.4C13.9891 43.39 22.1791 51.22 32.1691 51.22C35.2291 51.22 38.2891 50.5 40.8991 49.06L40.0891 47.71C37.6591 48.97 34.8691 49.69 32.0791 49.69C23.1691 49.69 15.7891 42.94 14.9791 34.12H16.7791C17.0491 34.12 17.3191 33.94 17.4991 33.67C17.5891 33.4 17.5891 33.13 17.4091 32.86L12.9091 26.56C12.7291 26.38 12.5491 26.2 12.2791 26.2C12.0091 26.2 11.8291 26.29 11.6491 26.56L7.14912 32.86C6.96912 33.13 6.96912 33.4 7.05912 33.67C7.14912 33.94 7.50912 34.12 7.77912 34.12H9.75912C10.6591 45.82 20.2891 54.82 32.0791 54.82C39.8191 54.82 46.9291 50.86 51.0691 44.29L49.7191 43.48C45.8491 49.6 39.2791 53.29 32.0791 53.29Z" fill="white"/>
</svg>
