<svg width="64" height="64" viewBox="0 0 64 64" fill="none" xmlns="http://www.w3.org/2000/svg">
<circle cx="32" cy="32" r="32" fill="#C94B23"/>
<path d="M31.76 8C18.71 8 8 18.71 8 31.76C8 44.81 18.71 55.52 31.76 55.52C44.81 55.52 55.52 44.81 55.52 31.76C55.52 18.71 44.81 8 31.76 8ZM31.76 53.9C19.52 53.9 9.62 44 9.62 31.76C9.62 19.52 19.52 9.62 31.76 9.62C44 9.62 53.9 19.52 53.9 31.76C53.9 44 44 53.9 31.76 53.9ZM31.76 11.6C20.69 11.6 11.6 20.6 11.6 31.76C11.6 42.92 20.6 51.92 31.76 51.92C42.83 51.92 51.92 42.92 51.92 31.76C51.92 20.6 42.83 11.6 31.76 11.6ZM13.22 31.76C13.22 21.5 21.59 13.22 31.76 13.22C36.62 13.22 41.03 15.11 44.27 18.17L18.08 44.27C15.11 41.03 13.22 36.62 13.22 31.76ZM31.76 50.3C26.9 50.3 22.49 48.41 19.25 45.35L45.44 19.16C48.5 22.49 50.39 26.9 50.39 31.67C50.3 42.02 42.02 50.3 31.76 50.3ZM48.41 36.62V35H45.62C45.62 34.91 45.53 34.82 45.53 34.73L47.96 33.29L47.15 31.94L44.72 33.38C44.63 33.29 44.63 33.2 44.54 33.2L45.98 30.77L44.63 29.96L43.19 32.39C43.1 32.39 43.01 32.3 42.92 32.3V29.51H41.3V32.3C41.21 32.3 41.12 32.39 41.03 32.39L39.59 29.96L38.24 30.77L39.68 33.2C39.59 33.29 39.5 33.29 39.5 33.38L37.07 31.94L36.26 33.29L38.69 34.73C38.69 34.82 38.6 34.91 38.6 35H35.81V36.62H38.6C38.6 36.71 38.69 36.8 38.69 36.89L36.26 38.33L37.07 39.68L39.5 38.24C39.59 38.33 39.59 38.42 39.68 38.42L38.24 40.85L39.59 41.66L41.03 39.23C41.12 39.23 41.21 39.32 41.3 39.32V42.11H42.92V39.32C43.01 39.32 43.1 39.23 43.19 39.23L44.63 41.66L45.98 40.85L44.54 38.42C44.63 38.33 44.72 38.33 44.72 38.24L47.15 39.68L47.96 38.33L45.53 36.89C45.53 36.8 45.62 36.71 45.62 36.62H48.41ZM42.11 38.96C40.4 38.96 38.96 37.52 38.96 35.81C38.96 34.1 40.4 32.66 42.11 32.66C43.82 32.66 45.26 34.1 45.26 35.81C45.26 37.52 43.82 38.96 42.11 38.96ZM22.58 25.64L21.5 24.56L20.33 25.73V24.11H18.71V25.73L17.54 24.56L16.46 25.64L17.63 26.81H16.01V28.34H17.63L16.46 29.51L17.54 30.59L18.71 29.51V31.13H20.24V29.51L21.41 30.68L22.49 29.6L21.41 28.43H23.03V26.81H21.41L22.58 25.64ZM21.41 27.71C21.41 28.7 20.6 29.51 19.61 29.51C18.62 29.51 17.81 28.7 17.81 27.71C17.81 26.72 18.62 25.91 19.61 25.91C20.6 25.91 21.41 26.72 21.41 27.71ZM34.28 42.74L33.2 41.66L32.03 42.83V41.21H30.41V42.83L29.24 41.66L28.16 42.74L29.33 43.91H27.71V45.44H29.33L28.16 46.61L29.24 47.69L30.41 46.61V48.23H31.94V46.61L33.11 47.78L34.19 46.7L33.11 45.53H34.73V43.91H33.11L34.28 42.74ZM33.11 44.81C33.11 45.8 32.3 46.61 31.31 46.61C30.32 46.61 29.51 45.8 29.51 44.81C29.51 43.82 30.32 43.01 31.31 43.01C32.3 43.01 33.11 43.82 33.11 44.81ZM27.71 16.01C27.17 16.01 26.81 16.37 26.81 16.91C26.81 17.45 27.17 17.81 27.71 17.81C28.25 17.81 28.61 17.45 28.61 16.91C28.61 16.37 28.25 16.01 27.71 16.01ZM32.21 20.51C31.67 20.51 31.31 20.87 31.31 21.41C31.31 21.95 31.67 22.31 32.21 22.31C32.75 22.31 33.11 21.95 33.11 21.41C33.11 20.87 32.75 20.51 32.21 20.51ZM34.91 16.91C34.37 16.91 34.01 17.27 34.01 17.81C34.01 18.35 34.37 18.71 34.91 18.71C35.45 18.71 35.81 18.35 35.81 17.81C35.81 17.27 35.45 16.91 34.91 16.91ZM25.91 21.41C25.37 21.41 25.01 21.77 25.01 22.31C25.01 22.85 25.37 23.21 25.91 23.21C26.45 23.21 26.81 22.85 26.81 22.31C26.81 21.77 26.45 21.41 25.91 21.41ZM27.71 26.81C27.17 26.81 26.81 27.17 26.81 27.71C26.81 28.25 27.17 28.61 27.71 28.61C28.25 28.61 28.61 28.25 28.61 27.71C28.61 27.17 28.25 26.81 27.71 26.81ZM38.51 44.81C37.97 44.81 37.61 45.17 37.61 45.71C37.61 46.25 37.97 46.61 38.51 46.61C39.05 46.61 39.41 46.25 39.41 45.71C39.41 45.17 39.05 44.81 38.51 44.81ZM18.71 34.91C18.17 34.91 17.81 35.27 17.81 35.81C17.81 36.35 18.17 36.71 18.71 36.71C19.25 36.71 19.61 36.35 19.61 35.81C19.61 35.27 19.25 34.91 18.71 34.91ZM45.71 27.71C46.25 27.71 46.61 27.35 46.61 26.81C46.61 26.27 46.25 25.91 45.71 25.91C45.17 25.91 44.81 26.27 44.81 26.81C44.81 27.35 45.17 27.71 45.71 27.71Z" fill="white"/>
</svg>
