<?xml version="1.0" encoding="utf-8"?><svg width="64" height="64" fill="none" xmlns="http://www.w3.org/2000/svg" viewBox="0 0 64 64"><path d="M63.359 25.883l-7.952-4.025 7.952-4.026c.384-.252.641-.503.641-1.006 0-.504-.257-.755-.641-1.007L32.577.094c-.385-.125-.77-.125-1.026 0L.77 15.82c-.385.252-.642.503-.642 1.007 0 .503.257.754.642 1.006l7.951 4.026L.77 25.883c-.385.252-.642.503-.642 1.006 0 .252.129.504.257.63H.128v9.434c0 .378.257.755.513 1.007l7.696 4.277-7.696 3.9C.257 46.388 0 46.64 0 47.143s.257.755.641 1.006l30.782 15.725c.128.126.385.126.513.126s.385 0 .513-.126L63.23 48.15c.384-.251.64-.503.64-1.006s-.256-.755-.64-1.006l-7.696-3.9 7.696-4.277c.384-.252.512-.504.512-1.007v-9.435h-.256a.952.952 0 00.256-.629c.257-.377 0-.754-.384-1.006zm-59.64-9.057L32.064 2.359 60.41 16.826 32.064 31.292 3.72 16.826zm4.105 22.517l-5.387-3.019v-7.548l5.515 2.768v7.8h-.128zm52.585 7.674L32.064 61.484 3.72 47.017l7.055-3.648L31.55 54.817c.128.126.385.126.513.126s.385 0 .513-.126l20.778-11.448 7.054 3.648zm-50.277-6.416v-7.925l5.515 2.768v8.177l-5.515-3.02zm7.696 4.152v-8.177l5.515 2.767v8.429l-5.515-3.02zm21.034 4.151L33.09 52.05v-8.806l5.515-2.767v8.428h.257zM30.91 52.05l-5.643-3.145h.256v-8.428l5.515 2.767v8.806h-.128zm10.004-4.277v-8.428l5.515-2.768v8.177l-5.515 3.019zm7.695-4.151v-8.177l5.515-2.768v7.925l-5.515 3.02zm-16.545-2.265L3.72 26.89l7.44-3.773 20.392 10.44c.128.127.385.127.513.127s.385 0 .513-.126L52.97 23.115l7.439 3.774-28.345 14.467zm29.627-5.032l-5.515 3.02v-7.8l5.515-2.768v7.548z" fill="#000"/></svg>