<?xml version="1.0" encoding="utf-8"?><svg width="32" height="32" fill="none" xmlns="http://www.w3.org/2000/svg" viewBox="0 0 32 32"><path d="M16 18.8c-1.5 0-2.8-1.2-2.8-2.8 0-1.5 1.2-2.8 2.8-2.8 1.5 0 2.8 1.2 2.8 2.8 0 1.5-1.3 2.8-2.8 2.8z" fill="#000"/><path fill-rule="evenodd" clip-rule="evenodd" d="M19.4 9.2h-6.8c-.8.1-1.2.2-1.5.3-.4.1-.7.3-1 .6-.237.237-.35.475-.485.762-.036.075-.073.155-.115.238a5.48 5.48 0 01-.052.148A3.53 3.53 0 009.2 12.6v6.8c.1.8.2 1.2.3 1.5.1.4.3.7.6 1 .237.237.475.35.762.485.075.036.155.073.238.115.046.015.095.033.148.052a3.53 3.53 0 001.352.248h6.8c.8-.1 1.2-.2 1.5-.3.4-.1.7-.3 1-.6.237-.237.35-.475.485-.762.036-.075.073-.155.115-.238.015-.046.033-.095.052-.147A3.53 3.53 0 0022.8 19.4v-6.8c-.1-.8-.2-1.2-.3-1.5-.1-.4-.3-.7-.6-1-.237-.237-.475-.35-.762-.485A11.461 11.461 0 0120.9 9.5c-.046-.015-.095-.033-.147-.052A3.53 3.53 0 0019.4 9.2zM16 11.7c-2.4 0-4.3 1.9-4.3 4.3s1.9 4.3 4.3 4.3 4.3-1.9 4.3-4.3-1.9-4.3-4.3-4.3zm5.4-.1a1 1 0 11-2 0 1 1 0 012 0z" fill="#000"/><path fill-rule="evenodd" clip-rule="evenodd" d="M0 16C0 7.163 7.163 0 16 0s16 7.163 16 16-7.163 16-16 16S0 24.837 0 16zm12.6-8.3h6.8c.9.1 1.5.2 2 .4.6.3 1 .5 1.5 1s.8 1 1 1.5c.2.5.4 1.1.4 2v6.8c-.1.9-.2 1.5-.4 2-.3.6-.5 1-1 1.5s-1 .8-1.5 1c-.5.2-1.1.4-2 .4h-6.8c-.9-.1-1.5-.2-2-.4-.6-.3-1-.5-1.5-1s-.8-1-1-1.5c-.2-.5-.4-1.1-.4-2v-6.8c.1-.9.2-1.5.4-2 .3-.6.5-1 1-1.5s1-.8 1.5-1c.5-.2 1.1-.4 2-.4z" fill="#000"/></svg>