<?xml version="1.0" encoding="utf-8"?><svg width="28" height="28" fill="none" xmlns="http://www.w3.org/2000/svg" viewBox="0 0 28 28"><path d="M10.203.67a1.378 1.378 0 00-1.305.728l-1.71 3.227-3.597.63a1.376 1.376 0 00-1.125 1.55l.51 3.614-2.539 2.623a1.378 1.378 0 000 1.916l2.54 2.625-.51 3.615a1.377 1.377 0 001.124 1.55l3.596.63 1.711 3.224a1.38 1.38 0 001.823.593L14 25.591l3.281 1.602a1.376 1.376 0 001.82-.591l1.712-3.224 3.596-.63a1.38 1.38 0 001.128-1.553l-.511-3.614 2.54-2.623a1.383 1.383 0 00-.003-1.916l-2.54-2.625.51-3.615a1.379 1.379 0 00-1.127-1.55l-3.596-.63-1.711-3.224a1.374 1.374 0 00-1.818-.59L14 2.407l-3.281-1.6a1.363 1.363 0 00-.516-.139zM10 7.332a2.666 2.666 0 11.001 5.332A2.666 2.666 0 0110 7.333zm7.2.735l1.6 1.198-8 10.666-1.6-1.198 8-10.666zm-7.2.599a1.333 1.333 0 100 2.666 1.333 1.333 0 000-2.666zm8 6.666a2.666 2.666 0 110 5.334 2.666 2.666 0 110-5.334zm0 1.334a1.333 1.333 0 100 2.666 1.333 1.333 0 000-2.666z" fill="#fff"/></svg>