<?xml version="1.0" encoding="utf-8"?><svg width="78" height="78" fill="none" xmlns="http://www.w3.org/2000/svg" viewBox="0 0 78 78"><path d="M54.344 37.656L33.234 23.22c-.656-.485-2.406-.485-2.547 1.344v28.875a1.62 1.62 0 002.547 1.343l21.11-14.437c.547-.328 1.297-1.672 0-2.688zM33.954 50.36V27.641L50.53 39 33.953 50.358z" fill="#fff"/><path d="M39 .719C17.89.719.719 17.89.719 39 .719 60.11 17.89 77.281 39 77.281c21.11 0 38.281-17.172 38.281-38.281C77.281 17.89 60.11.719 39 .719zm0 73.297C19.687 74.016 3.984 58.312 3.984 39 3.984 19.687 19.688 3.984 39 3.984c19.313 0 35.016 15.704 35.016 35.016 0 19.313-15.704 35.016-35.016 35.016z" fill="#fff"/></svg>