<?xml version="1.0" encoding="utf-8"?><svg width="22" height="22" fill="none" xmlns="http://www.w3.org/2000/svg" viewBox="0 0 22 22"><path d="M1.03 17.33c0 .36.08.73.25 1.09.17.36.39.7.68 1.02.49.54 1.03.93 1.64 1.18.6.25 1.25.38 1.95.38 1.02 0 2.11-.24 3.26-.73s2.3-1.15 3.44-1.98a28.75 28.75 0 003.28-2.8c1.03-1.04 1.96-2.13 2.79-3.27.82-1.14 1.48-2.28 1.96-3.41.48-1.14.72-2.23.72-3.27 0-.68-.12-1.33-.36-1.93-.24-.61-.62-1.17-1.15-1.67-.64-.63-1.34-.94-2.08-.94-.28 0-.56.06-.81.18-.26.12-.49.3-.67.56l-2.32 3.27c-.18.25-.31.48-.4.7-.09.21-.14.42-.14.61 0 .24.07.48.21.71.13.23.32.47.56.71l.76.79c.11.11.16.24.16.4 0 .08-.01.15-.03.23-.03.08-.06.14-.08.2-.18.33-.49.76-.93 1.28-.45.52-.93 1.05-1.45 1.58-.54.53-1.06 1.02-1.59 1.47-.52.44-.95.74-1.29.92-.05.02-.11.05-.18.08a.69.69 0 01-.25.04.55.55 0 01-.41-.17l-.76-.75c-.25-.25-.49-.44-.72-.56-.23-.14-.46-.21-.71-.21-.19 0-.39.04-.61.13-.22.09-.45.22-.7.39l-3.31 2.35c-.26.18-.44.39-.55.64-.1.25-.16.5-.16.78z" stroke="#fff" stroke-width="1.5" stroke-miterlimit="10"/><path d="M4.5 8c0-.6.47-1.52 1.17-2.27C6.31 5.04 7.16 4.5 8 4.5M1 8c0-3.87 3.13-7 7-7" stroke="#fff" stroke-width="1.5" stroke-linecap="round" stroke-linejoin="round"/></svg>