<?xml version="1.0" encoding="utf-8"?><svg width="32" height="32" fill="none" xmlns="http://www.w3.org/2000/svg" viewBox="0 0 32 32"><path fill-rule="evenodd" clip-rule="evenodd" d="M16 32C7.163 32 0 24.837 0 16S7.163 0 16 0s16 7.163 16 16-7.163 16-16 16zm.692-19.993c-1.433.596-4.297 1.83-8.592 3.701-.698.278-1.063.549-1.096.814-.056.449.505.625 1.27.866.104.032.212.066.322.102.752.245 1.764.53 2.29.542.477.01 1.01-.186 1.598-.59 4.013-2.709 6.084-4.078 6.214-4.108.092-.02.22-.047.305.03.087.076.078.221.069.26-.056.237-2.26 2.287-3.4 3.347-.356.33-.608.565-.66.619-.115.12-.233.233-.346.342-.699.674-1.223 1.179.029 2.004.602.396 1.083.724 1.563 1.051.525.358 1.048.714 1.725 1.158.172.113.337.23.497.344.61.436 1.16.826 1.837.764.393-.036.8-.406 1.007-1.51.488-2.61 1.447-8.263 1.669-10.592a2.602 2.602 0 00-.025-.58.621.621 0 00-.21-.4c-.176-.143-.448-.173-.57-.17-.554.009-1.405.305-5.496 2.006z" fill="#000"/></svg>