<?xml version="1.0" encoding="utf-8"?><svg width="64" height="64" fill="none" xmlns="http://www.w3.org/2000/svg" viewBox="0 0 64 64"><circle cx="32" cy="32" r="32" fill="#C94B23"/><path d="M32.5 10C20.12 10 10 20.12 10 32.5S20.12 55 32.5 55 55 44.88 55 32.5 44.88 10 32.5 10zm0 43.494c-11.626 0-20.994-9.451-20.994-20.994S20.874 11.506 32.5 11.506A20.954 20.954 0 0153.494 32.5 20.954 20.954 0 0132.5 53.494zm5.604-15.892c-1.505-4.935-4.517-11.877-4.935-12.964-.083-.251-.418-.419-.669-.419-.335 0-.585.168-.67.418-.417 1.004-3.428 8.03-4.934 12.965H13.93l.335.92c2.51 7.946 9.87 13.132 18.318 13.132 8.448 0 15.808-5.186 18.317-13.132l.335-.92H38.104zM32.5 26.812c1.84 4.517 5.019 12.714 5.019 14.889a5.07 5.07 0 01-5.103 5.102 5.07 5.07 0 01-5.102-5.102c.084-2.175 3.262-10.372 5.186-14.889zm.084 23.337c-7.445 0-14.052-4.35-16.645-11.125h10.455c-.334 1.087-.502 2.091-.502 2.677a6.533 6.533 0 006.524 6.524 6.533 6.533 0 006.525-6.524c0-.586-.168-1.59-.502-2.677h10.79c-2.593 6.859-9.201 11.125-16.645 11.125zM19.954 24.72l2.174 1.59.837-1.172-2.091-1.505c.669-.837 1.505-1.59 2.342-2.175l.836 1.088 1.171-.837-.753-1.087c.92-.586 1.84-1.088 2.844-1.422l.418 1.254 1.422-.418-.418-1.255a19.869 19.869 0 013.095-.501v2.509h1.505v-2.677c1.088 0 2.175.168 3.179.419l-.586 1.421 1.422.419.419-1.422c1.003.334 2.007.836 2.927 1.338l-.92 1.338 1.171.837.92-1.255a20.43 20.43 0 012.426 2.259l-2.342 1.672.836 1.171 2.342-1.756c.084.084.084.167.167.25l1.171-.836c-3.178-4.6-8.364-7.36-13.968-7.36-5.604 0-10.79 2.76-13.968 7.36l1.421.753c0 .084 0 0 0 0zM32.5 44.963c1.757 0 3.262-1.422 3.262-3.262 0-1.757-1.422-3.262-3.262-3.262s-3.262 1.422-3.262 3.262c0 1.756 1.506 3.262 3.262 3.262zm0-5.019c1.004 0 1.757.837 1.757 1.757 0 1.004-.837 1.756-1.757 1.756-.92 0-1.756-.836-1.756-1.756 0-1.004.752-1.757 1.756-1.757z" fill="#fff"/></svg>