<?xml version="1.0" encoding="utf-8"?><svg width="64" height="64" fill="none" xmlns="http://www.w3.org/2000/svg" viewBox="0 0 64 64"><circle cx="32" cy="32" r="32" fill="#C94B23"/><path d="M39.62 23.29H23.6v14.22h16.02V23.29zM38 35.89H25.22V24.91h12.87v10.98H38zm-1.98-9.09H34.4v7.11h1.62V26.8zm-3.6 1.98H30.8V34h1.62v-5.22zm-3.6 1.62H27.2V34h1.62v-3.6zm2.79 12.69c-2.43 0-4.41 1.98-4.41 4.41s1.98 4.41 4.41 4.41 4.41-1.98 4.41-4.41-1.98-4.41-4.41-4.41zm0 7.2c-1.53 0-2.79-1.26-2.79-2.79s1.26-2.79 2.79-2.79 2.79 1.26 2.79 2.79-1.26 2.79-2.79 2.79zm-3.6-10.8h-4.5v1.62h4.5v-1.62zm7.2 1.62h4.5v-1.62h-4.5v1.62zm-1.8 0v-1.62h-3.6v1.62h3.6zm8.19-21.42H21.62c-.9 0-1.62.72-1.62 1.71v26.1c0 4.86 5.22 8.91 11.61 8.91s11.61-3.96 11.61-8.91V21.4c0-.9-.72-1.71-1.62-1.71zm0 27.81c0 4.05-4.5 7.29-9.99 7.29s-9.99-3.24-9.99-7.29V21.4v-.09h19.89s.09 0 .09.09v26.1zM31.61 8.62c3.51 0 6.75.99 9.45 2.97l.9-1.26C38.99 8.17 35.39 7 31.61 7c-3.78 0-7.38 1.08-10.35 3.15l.9 1.35c2.7-1.89 5.94-2.88 9.45-2.88zm8.01 4.32c-2.34-1.53-5.04-2.34-8.01-2.34-2.97 0-5.67.81-8.01 2.34l.9 1.35c1.98-1.35 4.5-2.07 7.11-2.07 2.61 0 5.04.72 7.11 2.07l.9-1.35zm-13.5 2.7l.81 1.35c1.35-.81 2.88-1.26 4.68-1.26 1.8 0 3.33.45 4.68 1.26l.81-1.35c-1.62-.9-3.42-1.44-5.49-1.44-2.07 0-3.87.54-5.49 1.44z" fill="#fff"/></svg>