<?xml version="1.0" encoding="utf-8"?><svg width="64" height="64" fill="none" xmlns="http://www.w3.org/2000/svg" viewBox="0 0 64 64"><circle cx="32" cy="32" r="32" fill="#C94B23"/><path d="M52.59 27.905l-5.095-2.629 5.094-2.63c.247-.163.411-.328.411-.657 0-.328-.164-.492-.41-.657l-19.72-10.27c-.247-.082-.493-.082-.658 0l-19.719 10.27c-.247.165-.41.329-.41.657 0 .33.163.494.41.658l5.094 2.63-5.094 2.628c-.247.165-.41.329-.41.658 0 .164.081.328.163.41h-.164v6.163c0 .246.164.493.329.657l4.93 2.794-4.93 2.547c-.247.164-.411.328-.411.657s.164.493.41.657l19.72 10.27c.082.083.247.083.329.083.082 0 .246 0 .329-.082l19.719-10.27c.247-.165.41-.33.41-.658 0-.329-.163-.493-.41-.657l-4.93-2.547 4.93-2.794c.247-.164.329-.329.329-.657v-6.163h-.165a.627.627 0 00.165-.41c.164-.247 0-.493-.247-.658zM14.382 21.99l18.158-9.448L50.7 21.989l-18.158 9.45-18.158-9.45zm2.629 14.708l-3.45-1.972v-4.93l3.532 1.808v5.094h-.082zm33.687 5.012l-18.158 9.449-18.158-9.45 4.519-2.382 13.31 7.477c.083.082.247.082.33.082.081 0 .246 0 .328-.082l13.31-7.477 4.52 2.383zm-32.208-4.19v-5.177l3.533 1.808v5.34l-3.533-1.971zm4.93 2.711v-5.34l3.533 1.807v5.505L23.42 40.23zm13.475 2.711l-3.698 2.054v-5.751l3.533-1.808v5.505h.165zm-5.094 2.054l-3.616-2.054h.165v-5.505l3.533 1.808v5.752h-.082zm6.408-2.793v-5.505l3.533-1.808v5.341l-3.533 1.972zm4.93-2.712v-5.34l3.533-1.808v5.177L43.14 39.49zm-10.599-1.479l-18.158-9.448 4.765-2.465 13.064 6.82c.083.081.247.081.33.081.081 0 .246 0 .328-.082l13.064-6.82 4.765 2.466-18.158 9.448zm18.98-3.286l-3.533 1.972v-5.094l3.533-1.808v4.93z" fill="#fff"/></svg>