<?xml version="1.0" encoding="utf-8"?><svg width="64" height="64" fill="none" xmlns="http://www.w3.org/2000/svg" viewBox="0 0 64 64"><circle cx="32" cy="32" r="32" fill="#C94B23"/><path d="M31.76 8C18.71 8 8 18.71 8 31.76s10.71 23.76 23.76 23.76 23.76-10.71 23.76-23.76S44.81 8 31.76 8zm0 45.9C19.52 53.9 9.62 44 9.62 31.76s9.9-22.14 22.14-22.14 22.14 9.9 22.14 22.14S44 53.9 31.76 53.9zm0-42.3c-11.07 0-20.16 9-20.16 20.16s9 20.16 20.16 20.16c11.07 0 20.16-9 20.16-20.16S42.83 11.6 31.76 11.6zM13.22 31.76c0-10.26 8.37-18.54 18.54-18.54 4.86 0 9.27 1.89 12.51 4.95l-26.19 26.1a18.515 18.515 0 01-4.86-12.51zM31.76 50.3c-4.86 0-9.27-1.89-12.51-4.95l26.19-26.19c3.06 3.33 4.95 7.74 4.95 12.51-.09 10.35-8.37 18.63-18.63 18.63zm16.65-13.68V35h-2.79c0-.09-.09-.18-.09-.27l2.43-1.44-.81-1.35-2.43 1.44c-.09-.09-.09-.18-.18-.18l1.44-2.43-1.35-.81-1.44 2.43c-.09 0-.18-.09-.27-.09v-2.79H41.3v2.79c-.09 0-.18.09-.27.09l-1.44-2.43-1.35.81 1.44 2.43c-.09.09-.18.09-.18.18l-2.43-1.44-.81 1.35 2.43 1.44c0 .09-.09.18-.09.27h-2.79v1.62h2.79c0 .09.09.18.09.27l-2.43 1.44.81 1.35 2.43-1.44c.09.09.09.18.18.18l-1.44 2.43 1.35.81 1.44-2.43c.09 0 .18.09.27.09v2.79h1.62v-2.79c.09 0 .18-.09.27-.09l1.44 2.43 1.35-.81-1.44-2.43c.09-.09.18-.09.18-.18l2.43 1.44.81-1.35-2.43-1.44c0-.09.09-.18.09-.27h2.79zm-6.3 2.34c-1.71 0-3.15-1.44-3.15-3.15s1.44-3.15 3.15-3.15 3.15 1.44 3.15 3.15-1.44 3.15-3.15 3.15zM22.58 25.64l-1.08-1.08-1.17 1.17v-1.62h-1.62v1.62l-1.17-1.17-1.08 1.08 1.17 1.17h-1.62v1.53h1.62l-1.17 1.17 1.08 1.08 1.17-1.08v1.62h1.53v-1.62l1.17 1.17 1.08-1.08-1.08-1.17h1.62v-1.62h-1.62l1.17-1.17zm-1.17 2.07c0 .99-.81 1.8-1.8 1.8s-1.8-.81-1.8-1.8.81-1.8 1.8-1.8 1.8.81 1.8 1.8zm12.87 15.03l-1.08-1.08-1.17 1.17v-1.62h-1.62v1.62l-1.17-1.17-1.08 1.08 1.17 1.17h-1.62v1.53h1.62l-1.17 1.17 1.08 1.08 1.17-1.08v1.62h1.53v-1.62l1.17 1.17 1.08-1.08-1.08-1.17h1.62v-1.62h-1.62l1.17-1.17zm-1.17 2.07c0 .99-.81 1.8-1.8 1.8s-1.8-.81-1.8-1.8.81-1.8 1.8-1.8 1.8.81 1.8 1.8zm-5.4-28.8c-.54 0-.9.36-.9.9s.36.9.9.9.9-.36.9-.9-.36-.9-.9-.9zm4.5 4.5c-.54 0-.9.36-.9.9s.36.9.9.9.9-.36.9-.9-.36-.9-.9-.9zm2.7-3.6c-.54 0-.9.36-.9.9s.36.9.9.9.9-.36.9-.9-.36-.9-.9-.9zm-9 4.5c-.54 0-.9.36-.9.9s.36.9.9.9.9-.36.9-.9-.36-.9-.9-.9zm1.8 5.4c-.54 0-.9.36-.9.9s.36.9.9.9.9-.36.9-.9-.36-.9-.9-.9zm10.8 18c-.54 0-.9.36-.9.9s.36.9.9.9.9-.36.9-.9-.36-.9-.9-.9zm-19.8-9.9c-.54 0-.9.36-.9.9s.36.9.9.9.9-.36.9-.9-.36-.9-.9-.9zm27-7.2c.54 0 .9-.36.9-.9s-.36-.9-.9-.9-.9.36-.9.9.36.9.9.9z" fill="#fff"/></svg>