<?xml version="1.0" encoding="utf-8"?><svg width="64" height="64" fill="none" xmlns="http://www.w3.org/2000/svg" viewBox="0 0 64 64"><circle cx="32" cy="32" r="32" fill="#C94B23"/><path d="M15.21 41.69l.63 1.44c.54-.27 1.08-.45 1.62-.63l-.54-1.44c-.54.18-1.17.36-1.71.63zm-3.24-21.51l.9 1.35c.45-.36.99-.63 1.53-.9l-.81-1.35c-.63.18-1.17.54-1.62.9zm0 11.7l.9 1.35c.45-.36.99-.63 1.53-.9l-.81-1.35c-.63.18-1.17.54-1.62.9zm3.24-1.89l.63 1.44c.54-.27 1.08-.45 1.62-.63l-.54-1.44c-.54.18-1.17.36-1.71.63zM9 45.83L10.08 47s.45-.45 1.35-1.08l-.99-1.26c-.9.63-1.44 1.17-1.44 1.17zm6.21-27.54l.63 1.44c.54-.27 1.08-.45 1.62-.63l-.54-1.44c-.54.18-1.17.36-1.71.63zM9 34.13l1.08 1.17s.45-.45 1.35-1.08l-.99-1.26c-.9.63-1.44 1.17-1.44 1.17zm0-11.7l1.08 1.17s.45-.45 1.35-1.08l-.99-1.26c-.9.63-1.44 1.17-1.44 1.17zm2.97 21.15l.9 1.35c.45-.36.99-.63 1.53-.9l-.81-1.35c-.63.18-1.17.54-1.62.9zm13.95-25.11c.54.09 1.17.18 1.71.27l.36-1.53c-.63-.09-1.17-.27-1.8-.27l-.27 1.53zm-3.42-.27c.63 0 1.17 0 1.71.09l.09-1.53c-.63 0-1.17-.09-1.89-.09l.09 1.53zm3.42 11.97c.54.09 1.17.18 1.71.27l.36-1.53c-.63-.09-1.17-.27-1.8-.27l-.27 1.53zm0 11.7c.54.09 1.17.18 1.71.27l.36-1.53c-.63-.09-1.17-.27-1.8-.27l-.27 1.53zm26.55-7.65l2.16-6.12c.09-.27.09-.54-.09-.72-.18-.18-.36-.36-.63-.36l-6.3.18v1.53l4.14-.09c-1.8 1.26-5.94 3.96-9.81 3.96-2.79 0-4.77-.45-6.48-1.08v-9.99c1.71.54 3.78.99 6.48.99 3.96 0 8.1-2.34 10.17-3.87l-1.08 3.33 1.53.54 2.16-6.12c.09-.27.09-.54-.09-.72-.18-.18-.36-.36-.63-.36l-6.3.18v1.53l4.14-.09c-1.8 1.26-5.94 3.96-9.81 3.96-2.79 0-4.77-.45-6.48-1.08v-7.2c0-.9-.72-1.62-1.62-1.62h-2.7c-.9 0-1.62.72-1.62 1.62v5.49l-.27 1.08c.09 0 .18.09.27.09v10.53l-.27 1.08c.09 0 .18.09.27.09v10.53l-.27 1.08c.09 0 .18.09.27.09v8.64c0 .9.72 1.62 1.62 1.62h2.7c.9 0 1.62-.72 1.62-1.62v-6.39c1.71.54 3.78.99 6.48.99 3.96 0 8.1-2.34 10.17-3.87l-1.17 3.33 1.53.54 2.16-6.12c.09-.27.09-.54-.09-.72-.18-.18-.36-.36-.63-.36l-6.3.18v1.53l4.14-.09c-1.8 1.26-5.94 3.96-9.81 3.96-2.79 0-4.77-.45-6.48-1.08v-9.99c1.71.54 3.78.99 6.48.99 3.96 0 8.1-2.34 10.17-3.87l-1.17 3.33 1.44.54zm-18.54 17.1h-2.7v-38.7h2.7v38.7zM18.72 40.43l.36 1.53c.54-.18 1.17-.27 1.71-.27l-.18-1.53c-.63 0-1.26.18-1.89.27zm0-11.7l.36 1.53c.54-.18 1.17-.27 1.71-.27l-.18-1.53c-.63 0-1.26.18-1.89.27zm3.78 1.17c.63 0 1.17 0 1.71.09l.09-1.53c-.63 0-1.17-.09-1.89-.09l.09 1.53zm-3.78-12.87l.36 1.53c.54-.18 1.17-.27 1.71-.27l-.18-1.53c-.63 0-1.26.18-1.89.27zM22.5 41.6c.63 0 1.17 0 1.71.09l.09-1.53c-.63 0-1.17-.09-1.89-.09l.09 1.53z" fill="#fff"/></svg>