<?xml version="1.0" encoding="utf-8"?><svg width="64" height="64" fill="none" xmlns="http://www.w3.org/2000/svg" viewBox="0 0 64 64"><circle cx="32" cy="32" r="32" fill="#C94B23"/><path d="M36.31 19.81c-.36-.18-.72-.09-.99.18L24.88 32.86c-.18.27-.27.54-.09.81.09.27.36.45.72.45l4.77.09-3.42 8.82c-.18.36 0 .72.36.99.09.09.27.09.36.09.18 0 .45-.09.63-.27l10.98-12.6c.18-.27.27-.54.09-.81-.09-.27-.45-.45-.72-.45h-5.4l3.51-9.18c.18-.36 0-.72-.36-.99zm-5.04 10.62c-.09.27-.09.54.09.72.18.18.36.36.63.36h4.77l-6.93 8.1 2.25-5.76c.09-.27.09-.54-.09-.72-.18-.18-.36-.36-.63-.36h-4.23l6.3-7.83-2.16 5.49zm25.92.72c-.18-.27-.45-.45-.72-.45h-1.98C53.59 19 43.96 10 32.17 10c-7.74 0-14.85 3.96-18.99 10.53l1.35.81c3.87-6.12 10.44-9.72 17.64-9.72 11.16 0 20.34 8.73 20.79 19.98 0 .45.36.72.81.72h1.17l-2.97 4.14L49 32.32h1.08c.18 0 .45-.09.54-.27.18-.18.27-.36.18-.54-.36-10.08-8.64-17.91-18.63-17.91-3.06 0-6.12.72-8.73 2.16l.72 1.35c2.43-1.26 5.22-1.98 8.01-1.98 8.91 0 16.29 6.75 17.1 15.57h-1.8c-.27 0-.54.18-.72.45-.09.27-.09.54.09.81l4.5 6.3c.18.18.36.36.63.36s.45-.09.63-.36l4.5-6.3c.18-.27.18-.54.09-.81zM32.08 53.29c-11.16 0-20.34-8.73-20.79-19.98 0-.45-.36-.72-.81-.72H9.31l2.97-4.14 2.97 4.14h-1.08c-.18 0-.45.09-.54.27-.18.18-.27.36-.18.54.54 9.99 8.73 17.82 18.72 17.82 3.06 0 6.12-.72 8.73-2.16l-.81-1.35c-2.43 1.26-5.22 1.98-8.01 1.98-8.91 0-16.29-6.75-17.1-15.57h1.8c.27 0 .54-.18.72-.45.09-.27.09-.54-.09-.81l-4.5-6.3c-.18-.18-.36-.36-.63-.36s-.45.09-.63.36l-4.5 6.3c-.18.27-.18.54-.09.81s.45.45.72.45h1.98c.9 11.7 10.53 20.7 22.32 20.7 7.74 0 14.85-3.96 18.99-10.53l-1.35-.81c-3.87 6.12-10.44 9.81-17.64 9.81z" fill="#fff"/></svg>