<?xml version="1.0" encoding="utf-8"?><svg width="64" height="64" fill="none" xmlns="http://www.w3.org/2000/svg" viewBox="0 0 64 64"><circle cx="32" cy="32" r="32" fill="#C94B23"/><path d="M15.42 26.62v-.81H12v1.62h3.51c0-.27-.09-.54-.09-.81zm8.91-14.49l-1.71-2.97-1.35.81 1.71 2.97c.36-.27.81-.54 1.35-.81zM48 26.62v.72h3.42v-1.62h-3.51c0 .36.09.63.09.9zM42.24 9.97l-1.35-.81-1.71 2.97 1.35.81 1.71-2.97zm-9.72.45V7H30.9v3.42h.81c.27-.09.54 0 .81 0zm-.81 2.88c-7.38 0-13.41 6.12-13.41 13.68 0 4.41 1.17 7.29 4.77 11.7.99 1.26 2.16 3.33 2.16 4.86 0 .27.09.45.27.63v8.28c0 .72.45 1.44 1.08 1.71v.09l.09-.09c.09 0 .09 0 .18.09.54.63 1.89 1.89 4.86 1.89 2.97 0 4.32-1.17 4.86-1.89.81-.18 1.35-.9 1.35-1.8v-8.28c.18-.18.27-.36.27-.63 0-1.53 1.08-3.6 2.16-4.86 3.6-4.41 4.77-7.38 4.77-11.7 0-7.56-6.03-13.68-13.41-13.68zm4.68 39.24c0 .18-.09.27-.27.27-.27 0-.54.18-.72.45 0 .09-.81 1.35-3.69 1.35-1.89 0-2.88-.54-3.33-.99l8.01-3.24v2.16zm0-3.78l-9.36 3.78v-2.61l9.36-3.78v2.61zm0-4.32l-9.36 3.78v-3.78h9.36zm-4.68-12.51c1.26 0 2.61-1.17 2.61-3.51 0-.99-.45-1.98-1.08-2.79 1.44-.27 3.15 1.35 3.15 2.79v1.8c0 1.26-.63 3.78-1.35 6.21-.72 2.52-1.35 4.95-1.35 6.48h-3.87c0-1.44-.72-3.87-1.35-6.48-.63-2.43-1.35-4.95-1.35-6.21v-1.8c0-1.44 1.62-3.06 3.15-2.79-.72.81-1.08 1.8-1.08 2.79-.09 2.25 1.26 3.51 2.52 3.51zm-.99-3.51c0-.72.45-1.53.99-2.07.63.54.99 1.26.99 2.07 0 2.52-1.98 2.52-1.98 0zm8.37 9.27c-.27.27-2.07 2.61-2.43 5.13h-1.53c.09-1.26.72-3.69 1.35-6.03.72-2.61 1.35-5.13 1.35-6.57v-2.07c-.18-2.16-2.25-4.14-4.41-4.14-.63 0-1.26.18-1.8.45-.54-.27-1.17-.45-1.8-.45-2.16 0-4.23 1.98-4.41 4.14v2.07c0 1.44.63 3.96 1.35 6.57.63 2.34 1.26 4.77 1.35 6.03h-1.53c-.27-1.98-1.62-4.14-2.43-5.13-3.33-4.14-4.41-6.75-4.41-10.71 0-6.84 5.22-12.15 11.88-12.15 6.66 0 11.88 5.31 11.88 12.15.09 3.96-.99 6.57-4.41 10.71zm9.99-20.25l-.81-1.35-2.97 1.71.81 1.35 2.97-1.71zM14.34 35.71l.81 1.35 2.88-1.71-.81-1.35-2.88 1.71zm0-18.27l2.97 1.71.81-1.35-2.97-1.71-.81 1.35zm31.05 17.91l2.88 1.71.81-1.35L46.2 34c-.27.54-.54.99-.81 1.35z" fill="#fff"/></svg>