<?xml version="1.0" encoding="utf-8"?><svg width="32" height="32" fill="none" xmlns="http://www.w3.org/2000/svg" viewBox="0 0 32 32"><path d="M10.699 12.87c.085 4.16 2.165 6.655 5.813 6.655h.213v-2.378c1.339.133 2.352 1.114 2.758 2.378h1.893a5.265 5.265 0 00-2.736-3.338 5.08 5.08 0 002.336-3.323h-1.717c-.374 1.323-1.483 2.523-2.534 2.635v-2.63h-1.722v4.608c-1.067-.266-2.411-1.557-2.47-4.608H10.7z" fill="#000"/><path fill-rule="evenodd" clip-rule="evenodd" d="M16 0c8.837 0 16 7.163 16 16s-7.163 16-16 16S0 24.837 0 16 7.163 0 16 0zM8 15.68c0-3.621 0-5.43 1.12-6.56C10.256 8 12.064 8 15.68 8h.64c3.621 0 5.43 0 6.56 1.12C24 10.256 24 12.064 24 15.68v.64c0 3.621 0 5.43-1.12 6.56C21.744 24 19.936 24 16.32 24h-.64c-3.621 0-5.43 0-6.56-1.12C8 21.744 8 19.936 8 16.32v-.64z" fill="#000"/></svg>