<?xml version="1.0" encoding="utf-8"?><svg width="32" height="32" fill="none" xmlns="http://www.w3.org/2000/svg" viewBox="0 0 32 32"><path fill-rule="evenodd" clip-rule="evenodd" d="M12.6 21.7c1 .6 2.2.9 3.4.9 3.7 0 6.6-3 6.6-6.5 0-1.8-.6-3.4-1.9-4.7-1.3-1.2-2.9-1.9-4.7-1.9-3.6 0-6.6 3-6.6 6.6 0 1.2.3 2.4 1 3.5l.2.3-.7 2.4 2.5-.7.2.1zm5.6-4.7c.2 0 1.2.5 1.4.6.031.016.062.029.093.042.167.07.323.136.407.558.1 0 .1.4-.1.9-.1.4-.9.9-1.3.9-.068 0-.133.006-.202.012-.34.03-.786.07-2.198-.512-1.753-.701-2.968-2.4-3.309-2.877-.048-.068-.079-.11-.091-.123-.017-.034-.052-.088-.097-.16-.221-.35-.703-1.11-.703-1.94 0-1 .5-1.5.7-1.7.2-.2.4-.2.5-.2h.4c.1 0 .3 0 .4.3.2.4.6 1.4.6 1.5 0 .033.011.067.022.1.023.067.045.133-.022.2-.05.05-.075.1-.1.15-.025.05-.05.1-.1.15l-.3.3c-.1.1-.2.2-.1.4s.5.9 1.1 1.4c.675.59 1.208.825 1.478.944.05.022.09.04.122.056.2 0 .3 0 .4-.1.05-.1.175-.25.3-.4.125-.15.25-.3.3-.4.1-.2.2-.2.4-.1z" fill="#000"/><path fill-rule="evenodd" clip-rule="evenodd" d="M0 16C0 7.163 7.163 0 16 0s16 7.163 16 16-7.163 16-16 16S0 24.837 0 16zm16-8c2.1 0 4.1.8 5.6 2.3 1.5 1.5 2.4 3.5 2.4 5.6 0 4.4-3.6 8-8 8-1.3 0-2.6-.4-3.8-1L8 24l1.1-4C8.4 18.8 8 17.4 8 16c0-4.4 3.6-8 8-8z" fill="#000"/></svg>