<?xml version="1.0" encoding="utf-8"?><svg viewBox="0 0 78 78" xmlns="http://www.w3.org/2000/svg" xmlns:xlink="http://www.w3.org/1999/xlink"><style>:root>svg{display:none}:root>svg:target{display:block}</style><svg fill="none" viewBox="0 0 24 24" id="arrow-circle" xmlns="http://www.w3.org/2000/svg"><path d="M12 22C6.477 22 2 17.523 2 12S6.477 2 12 2s10 4.477 10 10-4.477 10-10 10zM8.5 12h6" stroke="#000" stroke-width="1.5" stroke-linecap="round" stroke-linejoin="round"/><path d="M12.5 9l3 3-3 3" stroke="#000" stroke-width="1.5" stroke-linecap="round" stroke-linejoin="round"/></svg><svg fill="none" viewBox="0 0 22 37" id="arrow-swiper-next" xmlns="http://www.w3.org/2000/svg"><path d="M1.97 1.373l16.971 16.97-16.97 16.97" stroke="#656565" stroke-width="3"/></svg><svg fill="none" viewBox="0 0 22 37" id="arrow-swiper-prev" xmlns="http://www.w3.org/2000/svg"><path d="M19.97 1.373L3 18.343l16.97 16.97" stroke="#656565" stroke-width="3"/></svg><svg fill="none" viewBox="0 0 24 24" id="cart" xmlns="http://www.w3.org/2000/svg"><path d="M2 8.505h20M6 16.505h2M10.5 16.505h4" stroke="#fff" stroke-width="1.5" stroke-miterlimit="10" stroke-linecap="round" stroke-linejoin="round"/><path d="M6.44 3.505h11.11c3.56 0 4.45.88 4.45 4.39v8.21c0 3.51-.89 4.39-4.44 4.39H6.44c-3.55.01-4.44-.87-4.44-4.38v-8.22c0-3.51.89-4.39 4.44-4.39z" stroke="#fff" stroke-width="1.5" stroke-linecap="round" stroke-linejoin="round"/></svg><svg fill="none" viewBox="0 0 48 48" id="circle-link" xmlns="http://www.w3.org/2000/svg"><circle cx="24" cy="24" r="23" fill="#000" stroke="#fff" stroke-width="2"/><path d="M24 14c-5.52 0-10 4.48-10 10s4.48 10 10 10 10-4.48 10-10" stroke="#fff" stroke-width="2" stroke-miterlimit="10" stroke-linecap="round" stroke-linejoin="round"/><path d="M25 23l8.2-8.2M34 18.83V14h-4.83" stroke="#fff" stroke-width="2" stroke-linecap="round" stroke-linejoin="round"/></svg><svg fill="none" viewBox="0 0 32 32" id="file" xmlns="http://www.w3.org/2000/svg"><path d="M12 22.667v-8l-2.667 2.666M12 14.667l2.667 2.666" stroke="#656565" stroke-width="1.5" stroke-linecap="round" stroke-linejoin="round"/><path d="M29.333 13.333V20c0 6.667-2.666 9.333-9.333 9.333h-8c-6.667 0-9.333-2.666-9.333-9.333v-8c0-6.667 2.666-9.333 9.333-9.333h6.667" stroke="#656565" stroke-width="1.5" stroke-linecap="round" stroke-linejoin="round"/><path d="M29.333 13.333H24c-4 0-5.333-1.333-5.333-5.333V2.667l10.666 10.666z" stroke="#656565" stroke-width="1.5" stroke-linecap="round" stroke-linejoin="round"/></svg><svg fill="none" viewBox="0 0 64 64" id="icon" xmlns="http://www.w3.org/2000/svg"><path d="M63.359 25.883l-7.952-4.025 7.952-4.026c.384-.252.641-.503.641-1.006 0-.504-.257-.755-.641-1.007L32.577.094c-.385-.125-.77-.125-1.026 0L.77 15.82c-.385.252-.642.503-.642 1.007 0 .503.257.754.642 1.006l7.951 4.026L.77 25.883c-.385.252-.642.503-.642 1.006 0 .252.129.504.257.63H.128v9.434c0 .378.257.755.513 1.007l7.696 4.277-7.696 3.9C.257 46.388 0 46.64 0 47.143s.257.755.641 1.006l30.782 15.725c.128.126.385.126.513.126s.385 0 .513-.126L63.23 48.15c.384-.251.64-.503.64-1.006s-.256-.755-.64-1.006l-7.696-3.9 7.696-4.277c.384-.252.512-.504.512-1.007v-9.435h-.256a.952.952 0 00.256-.629c.257-.377 0-.754-.384-1.006zm-59.64-9.057L32.064 2.359 60.41 16.826 32.064 31.292 3.72 16.826zm4.105 22.517l-5.387-3.019v-7.548l5.515 2.768v7.8h-.128zm52.585 7.674L32.064 61.484 3.72 47.017l7.055-3.648L31.55 54.817c.128.126.385.126.513.126s.385 0 .513-.126l20.778-11.448 7.054 3.648zm-50.277-6.416v-7.925l5.515 2.768v8.177l-5.515-3.02zm7.696 4.152v-8.177l5.515 2.767v8.429l-5.515-3.02zm21.034 4.151L33.09 52.05v-8.806l5.515-2.767v8.428h.257zM30.91 52.05l-5.643-3.145h.256v-8.428l5.515 2.767v8.806h-.128zm10.004-4.277v-8.428l5.515-2.768v8.177l-5.515 3.019zm7.695-4.151v-8.177l5.515-2.768v7.925l-5.515 3.02zm-16.545-2.265L3.72 26.89l7.44-3.773 20.392 10.44c.128.127.385.127.513.127s.385 0 .513-.126L52.97 23.115l7.439 3.774-28.345 14.467zm29.627-5.032l-5.515 3.02v-7.8l5.515-2.768v7.548z" fill="#000"/></svg><svg fill="none" viewBox="0 0 32 32" id="in" xmlns="http://www.w3.org/2000/svg"><path fill-rule="evenodd" clip-rule="evenodd" d="M0 16C0 7.163 7.163 0 16 0s16 7.163 16 16-7.163 16-16 16S0 24.837 0 16zm8.2-2.7V24h3.4V13.3H8.2zM8 9.9c0 1.1.8 1.9 1.9 1.9 1.1 0 1.9-.8 1.9-1.9C11.8 8.8 11 8 9.9 8 8.9 8 8 8.8 8 9.9zM20.6 24h3.2v-6.6c0-3.3-2-4.4-3.9-4.4-1.7 0-2.9 1.1-3.2 1.8v-1.5h-3.2V24h3.4v-5.7c0-1.5 1-2.3 2-2.3s1.7.5 1.7 2.2V24z" fill="#000"/></svg><svg fill="none" viewBox="0 0 32 32" id="insta" xmlns="http://www.w3.org/2000/svg"><path d="M16 18.8c-1.5 0-2.8-1.2-2.8-2.8 0-1.5 1.2-2.8 2.8-2.8 1.5 0 2.8 1.2 2.8 2.8 0 1.5-1.3 2.8-2.8 2.8z" fill="#000"/><path fill-rule="evenodd" clip-rule="evenodd" d="M19.4 9.2h-6.8c-.8.1-1.2.2-1.5.3-.4.1-.7.3-1 .6-.237.237-.35.475-.485.762-.036.075-.073.155-.115.238a5.48 5.48 0 01-.052.148A3.53 3.53 0 009.2 12.6v6.8c.1.8.2 1.2.3 1.5.1.4.3.7.6 1 .237.237.475.35.762.485.075.036.155.073.238.115.046.015.095.033.148.052a3.53 3.53 0 001.352.248h6.8c.8-.1 1.2-.2 1.5-.3.4-.1.7-.3 1-.6.237-.237.35-.475.485-.762.036-.075.073-.155.115-.238.015-.046.033-.095.052-.147A3.53 3.53 0 0022.8 19.4v-6.8c-.1-.8-.2-1.2-.3-1.5-.1-.4-.3-.7-.6-1-.237-.237-.475-.35-.762-.485A11.461 11.461 0 0120.9 9.5c-.046-.015-.095-.033-.147-.052A3.53 3.53 0 0019.4 9.2zM16 11.7c-2.4 0-4.3 1.9-4.3 4.3s1.9 4.3 4.3 4.3 4.3-1.9 4.3-4.3-1.9-4.3-4.3-4.3zm5.4-.1a1 1 0 11-2 0 1 1 0 012 0z" fill="#000"/><path fill-rule="evenodd" clip-rule="evenodd" d="M0 16C0 7.163 7.163 0 16 0s16 7.163 16 16-7.163 16-16 16S0 24.837 0 16zm12.6-8.3h6.8c.9.1 1.5.2 2 .4.6.3 1 .5 1.5 1s.8 1 1 1.5c.2.5.4 1.1.4 2v6.8c-.1.9-.2 1.5-.4 2-.3.6-.5 1-1 1.5s-1 .8-1.5 1c-.5.2-1.1.4-2 .4h-6.8c-.9-.1-1.5-.2-2-.4-.6-.3-1-.5-1.5-1s-.8-1-1-1.5c-.2-.5-.4-1.1-.4-2v-6.8c.1-.9.2-1.5.4-2 .3-.6.5-1 1-1.5s1-.8 1.5-1c.5-.2 1.1-.4 2-.4z" fill="#000"/></svg><svg fill="none" viewBox="0 0 50 39" id="kas" xmlns="http://www.w3.org/2000/svg"><path d="M47.323 27.944V26.9c0-1.132-.777-2.09-1.727-2.438v-.174c0-11.23-5.181-19.152-14.249-21.676.173-.436.346-.61.346-.61A.932.932 0 0031.52.958C31.174.696 29.88 0 24.957 0c-4.922 0-6.218.696-6.563.958-.346.26-.346.696-.173 1.044 0 0 .173.261.346.61-9.068 2.524-14.25 10.446-14.25 21.676v.174c-1.035.261-1.726 1.306-1.726 2.438v1.044C.864 28.728 0 29.86 0 31.252 0 38.652 24.698 39 24.957 39 30.052 39 50 36.998 50 31.252c0-1.393-.95-2.524-2.677-3.308zM30.915 4.092c1.555.435 2.937 1.044 4.232 1.74-.777.958-2.59 3.831-4.059 9.49-.086.435.173.87.518.957h.173a.83.83 0 00.777-.61c1.468-5.658 3.368-8.357 3.886-9.053 4.922 3.57 7.6 9.663 7.6 17.585v.087h-11.4V24.2c0-3.047-1.727-5.659-4.317-6.964 0-6.268 1.381-10.882 2.418-13.32.086.087.086.175.172.175zm-5.958-2.525c2.763 0 4.231.261 4.922.435-.95 1.915-3.022 7.139-3.109 14.8a6.525 6.525 0 00-1.813-.262c-.605 0-1.21.087-1.814.261-.086-7.747-2.159-12.884-3.108-14.799.69-.174 2.158-.435 4.922-.435zM13.385 6.79c.605.784 2.59 3.57 3.973 9.054a.83.83 0 00.777.61h.172a.697.697 0 00.519-.959c-1.382-5.57-3.282-8.53-4.146-9.575 1.382-.784 2.85-1.48 4.491-1.916.95 2.438 2.418 7.052 2.418 13.32-2.59 1.218-4.318 3.917-4.318 6.964v.087H5.872v-.087c0-7.835 2.677-13.929 7.513-17.498zM4.145 26.9c0-.523.432-.958.864-.958h13.04a.777.777 0 00.777-.784v-.87c0-3.395 2.763-6.18 6.13-6.18 3.369 0 6.132 2.785 6.132 6.18v.87c0 .436.345.784.777.784h13.04c.518 0 .864.435.864.958v3.134c-.95.348-4.923 1.305-20.467 1.305-15.717 0-20.12-.957-21.157-1.305V26.9zm20.812 10.533c-9.758 0-23.403-2.35-23.403-6.18 0-.262 0-.871 1.037-1.568v.784c0 .174.086.435.259.522.432.435 3.454 1.915 22.452 1.915 13.299 0 21.071-.696 21.935-2.002.086-.087.086-.261.086-.435v-.784c1.123.697 1.123 1.306 1.123 1.567 0 3.221-14.68 6.181-23.49 6.181z" fill="#000"/></svg><svg fill="none" viewBox="0 0 24 24" id="lang" xmlns="http://www.w3.org/2000/svg"><path d="M12 22c5.523 0 10-4.477 10-10S17.523 2 12 2 2 6.477 2 12s4.477 10 10 10z" stroke="#fff" stroke-width="1.5" stroke-linecap="round" stroke-linejoin="round"/><path d="M8 3h1a28.424 28.424 0 000 18H8M15 3a28.424 28.424 0 010 18" stroke="#fff" stroke-width="1.5" stroke-linecap="round" stroke-linejoin="round"/><path d="M3 16v-1a28.424 28.424 0 0018 0v1M3 9a28.424 28.424 0 0118 0" stroke="#fff" stroke-width="1.5" stroke-linecap="round" stroke-linejoin="round"/></svg><svg fill="none" viewBox="0 0 24 27" id="logo" xmlns="http://www.w3.org/2000/svg"><path d="M17.443 0h-4.197L.262 13.5 13.246 27h4.197L4.459 13.5 17.443 0z" fill="#fff"/><path d="M24 0h-4.197L6.82 13.5 19.803 27H24L11.016 13.5 24 0zM0 27h11.148L0 15.695V27zM11.148 0H0v11.305L11.148 0z" fill="#fff"/></svg><svg fill="none" viewBox="0 0 40 21" id="md" xmlns="http://www.w3.org/2000/svg"><g clip-path="url(#amclip0_195_65)" fill="#000"><path d="M32.075 8.776c1.465 0 2.752.77 3.49 1.93V5.778a7.8 7.8 0 00-3.49-.821 7.863 7.863 0 00-5.55 2.29 8.855 8.855 0 011.855 3.801 4.143 4.143 0 013.695-2.272z"/><path d="M36.226 3.85v9.128c0 2.321-1.858 4.202-4.15 4.202-2.294 0-4.152-1.901-4.152-4.222 0-1.977-.7-3.799-1.86-5.213C24.61 5.969 22.432 4.833 20 4.833c-.222 0-.442.01-.66.029-2.149.182-4.056 1.241-5.377 2.826-1.454-1.747-3.62-2.855-6.038-2.855C3.554 4.833 0 8.459 0 12.916v4.235C0 19.277 1.69 21 3.774 21v-8.084c0-2.338 1.858-4.234 4.15-4.234 2.294 0 4.152 1.896 4.152 4.234v4.235c0 2.126 1.689 3.849 3.773 3.849v-8.084c0-2.109 1.512-3.858 3.49-4.18.216-.035.437-.054.661-.054 2.293 0 4.151 1.937 4.151 4.275 0 4.424 3.555 8.043 7.924 8.043C36.445 21 40 17.401 40 12.978V0c-2.083 0-3.773 1.723-3.773 3.85z"/></g><defs><clipPath id="amclip0_195_65"><path fill="#fff" d="M0 0h40v21H0z"/></clipPath></defs></svg><svg fill="none" viewBox="0 0 24 24" id="message" xmlns="http://www.w3.org/2000/svg"><path d="M8.5 19H8c-4 0-6-1-6-6V8c0-4 2-6 6-6h8c4 0 6 2 6 6v5c0 4-2 6-6 6h-.5c-.31 0-.61.15-.8.4l-1.5 2c-.66.88-1.74.88-2.4 0l-1.5-2c-.16-.22-.53-.4-.8-.4z" stroke="#656565" stroke-width="1.5" stroke-miterlimit="10" stroke-linecap="round" stroke-linejoin="round"/><path d="M15.996 11h.01M11.995 11h.01M7.995 11h.008" stroke="#656565" stroke-width="2" stroke-linecap="round" stroke-linejoin="round"/></svg><svg fill="none" viewBox="0 0 28 28" id="persent" xmlns="http://www.w3.org/2000/svg"><path d="M10.203.67a1.378 1.378 0 00-1.305.728l-1.71 3.227-3.597.63a1.376 1.376 0 00-1.125 1.55l.51 3.614-2.539 2.623a1.378 1.378 0 000 1.916l2.54 2.625-.51 3.615a1.377 1.377 0 001.124 1.55l3.596.63 1.711 3.224a1.38 1.38 0 001.823.593L14 25.591l3.281 1.602a1.376 1.376 0 001.82-.591l1.712-3.224 3.596-.63a1.38 1.38 0 001.128-1.553l-.511-3.614 2.54-2.623a1.383 1.383 0 00-.003-1.916l-2.54-2.625.51-3.615a1.379 1.379 0 00-1.127-1.55l-3.596-.63-1.711-3.224a1.374 1.374 0 00-1.818-.59L14 2.407l-3.281-1.6a1.363 1.363 0 00-.516-.139zM10 7.332a2.666 2.666 0 11.001 5.332A2.666 2.666 0 0110 7.333zm7.2.735l1.6 1.198-8 10.666-1.6-1.198 8-10.666zm-7.2.599a1.333 1.333 0 100 2.666 1.333 1.333 0 000-2.666zm8 6.666a2.666 2.666 0 110 5.334 2.666 2.666 0 110-5.334zm0 1.334a1.333 1.333 0 100 2.666 1.333 1.333 0 000-2.666z" fill="#fff"/></svg><svg fill="none" viewBox="0 0 78 78" id="play" xmlns="http://www.w3.org/2000/svg"><path d="M54.344 37.656L33.234 23.22c-.656-.485-2.406-.485-2.547 1.344v28.875a1.62 1.62 0 002.547 1.343l21.11-14.437c.547-.328 1.297-1.672 0-2.688zM33.954 50.36V27.641L50.53 39 33.953 50.358z" fill="#fff"/><path d="M39 .719C17.89.719.719 17.89.719 39 .719 60.11 17.89 77.281 39 77.281c21.11 0 38.281-17.172 38.281-38.281C77.281 17.89 60.11.719 39 .719zm0 73.297C19.687 74.016 3.984 58.312 3.984 39 3.984 19.687 19.688 3.984 39 3.984c19.313 0 35.016 15.704 35.016 35.016 0 19.313-15.704 35.016-35.016 35.016z" fill="#fff"/></svg><svg fill="none" viewBox="0 0 22 22" id="tel" xmlns="http://www.w3.org/2000/svg"><path d="M1.03 17.33c0 .36.08.73.25 1.09.17.36.39.7.68 1.02.49.54 1.03.93 1.64 1.18.6.25 1.25.38 1.95.38 1.02 0 2.11-.24 3.26-.73s2.3-1.15 3.44-1.98a28.75 28.75 0 003.28-2.8c1.03-1.04 1.96-2.13 2.79-3.27.82-1.14 1.48-2.28 1.96-3.41.48-1.14.72-2.23.72-3.27 0-.68-.12-1.33-.36-1.93-.24-.61-.62-1.17-1.15-1.67-.64-.63-1.34-.94-2.08-.94-.28 0-.56.06-.81.18-.26.12-.49.3-.67.56l-2.32 3.27c-.18.25-.31.48-.4.7-.09.21-.14.42-.14.61 0 .24.07.48.21.71.13.23.32.47.56.71l.76.79c.11.11.16.24.16.4 0 .08-.01.15-.03.23-.03.08-.06.14-.08.2-.18.33-.49.76-.93 1.28-.45.52-.93 1.05-1.45 1.58-.54.53-1.06 1.02-1.59 1.47-.52.44-.95.74-1.29.92-.05.02-.11.05-.18.08a.69.69 0 01-.25.04.55.55 0 01-.41-.17l-.76-.75c-.25-.25-.49-.44-.72-.56-.23-.14-.46-.21-.71-.21-.19 0-.39.04-.61.13-.22.09-.45.22-.7.39l-3.31 2.35c-.26.18-.44.39-.55.64-.1.25-.16.5-.16.78z" stroke="#fff" stroke-width="1.5" stroke-miterlimit="10"/><path d="M4.5 8c0-.6.47-1.52 1.17-2.27C6.31 5.04 7.16 4.5 8 4.5M1 8c0-3.87 3.13-7 7-7" stroke="#fff" stroke-width="1.5" stroke-linecap="round" stroke-linejoin="round"/></svg><svg fill="none" viewBox="0 0 32 32" id="telegram" xmlns="http://www.w3.org/2000/svg"><path fill-rule="evenodd" clip-rule="evenodd" d="M16 32C7.163 32 0 24.837 0 16S7.163 0 16 0s16 7.163 16 16-7.163 16-16 16zm.692-19.993c-1.433.596-4.297 1.83-8.592 3.701-.698.278-1.063.549-1.096.814-.056.449.505.625 1.27.866.104.032.212.066.322.102.752.245 1.764.53 2.29.542.477.01 1.01-.186 1.598-.59 4.013-2.709 6.084-4.078 6.214-4.108.092-.02.22-.047.305.03.087.076.078.221.069.26-.056.237-2.26 2.287-3.4 3.347-.356.33-.608.565-.66.619-.115.12-.233.233-.346.342-.699.674-1.223 1.179.029 2.004.602.396 1.083.724 1.563 1.051.525.358 1.048.714 1.725 1.158.172.113.337.23.497.344.61.436 1.16.826 1.837.764.393-.036.8-.406 1.007-1.51.488-2.61 1.447-8.263 1.669-10.592a2.602 2.602 0 00-.025-.58.621.621 0 00-.21-.4c-.176-.143-.448-.173-.57-.17-.554.009-1.405.305-5.496 2.006z" fill="#000"/></svg><svg fill="none" viewBox="0 0 64 64" id="turnkey-work1" xmlns="http://www.w3.org/2000/svg"><circle cx="32" cy="32" r="32" fill="#C94B23"/><path d="M52.59 27.905l-5.095-2.629 5.094-2.63c.247-.163.411-.328.411-.657 0-.328-.164-.492-.41-.657l-19.72-10.27c-.247-.082-.493-.082-.658 0l-19.719 10.27c-.247.165-.41.329-.41.657 0 .33.163.494.41.658l5.094 2.63-5.094 2.628c-.247.165-.41.329-.41.658 0 .164.081.328.163.41h-.164v6.163c0 .246.164.493.329.657l4.93 2.794-4.93 2.547c-.247.164-.411.328-.411.657s.164.493.41.657l19.72 10.27c.082.083.247.083.329.083.082 0 .246 0 .329-.082l19.719-10.27c.247-.165.41-.33.41-.658 0-.329-.163-.493-.41-.657l-4.93-2.547 4.93-2.794c.247-.164.329-.329.329-.657v-6.163h-.165a.627.627 0 00.165-.41c.164-.247 0-.493-.247-.658zM14.382 21.99l18.158-9.448L50.7 21.989l-18.158 9.45-18.158-9.45zm2.629 14.708l-3.45-1.972v-4.93l3.532 1.808v5.094h-.082zm33.687 5.012l-18.158 9.449-18.158-9.45 4.519-2.382 13.31 7.477c.083.082.247.082.33.082.081 0 .246 0 .328-.082l13.31-7.477 4.52 2.383zm-32.208-4.19v-5.177l3.533 1.808v5.34l-3.533-1.971zm4.93 2.711v-5.34l3.533 1.807v5.505L23.42 40.23zm13.475 2.711l-3.698 2.054v-5.751l3.533-1.808v5.505h.165zm-5.094 2.054l-3.616-2.054h.165v-5.505l3.533 1.808v5.752h-.082zm6.408-2.793v-5.505l3.533-1.808v5.341l-3.533 1.972zm4.93-2.712v-5.34l3.533-1.808v5.177L43.14 39.49zm-10.599-1.479l-18.158-9.448 4.765-2.465 13.064 6.82c.083.081.247.081.33.081.081 0 .246 0 .328-.082l13.064-6.82 4.765 2.466-18.158 9.448zm18.98-3.286l-3.533 1.972v-5.094l3.533-1.808v4.93z" fill="#fff"/></svg><svg fill="none" viewBox="0 0 64 64" id="turnkey-work2" xmlns="http://www.w3.org/2000/svg"><circle cx="32" cy="32" r="32" fill="#C94B23"/><path d="M15.42 26.62v-.81H12v1.62h3.51c0-.27-.09-.54-.09-.81zm8.91-14.49l-1.71-2.97-1.35.81 1.71 2.97c.36-.27.81-.54 1.35-.81zM48 26.62v.72h3.42v-1.62h-3.51c0 .36.09.63.09.9zM42.24 9.97l-1.35-.81-1.71 2.97 1.35.81 1.71-2.97zm-9.72.45V7H30.9v3.42h.81c.27-.09.54 0 .81 0zm-.81 2.88c-7.38 0-13.41 6.12-13.41 13.68 0 4.41 1.17 7.29 4.77 11.7.99 1.26 2.16 3.33 2.16 4.86 0 .27.09.45.27.63v8.28c0 .72.45 1.44 1.08 1.71v.09l.09-.09c.09 0 .09 0 .18.09.54.63 1.89 1.89 4.86 1.89 2.97 0 4.32-1.17 4.86-1.89.81-.18 1.35-.9 1.35-1.8v-8.28c.18-.18.27-.36.27-.63 0-1.53 1.08-3.6 2.16-4.86 3.6-4.41 4.77-7.38 4.77-11.7 0-7.56-6.03-13.68-13.41-13.68zm4.68 39.24c0 .18-.09.27-.27.27-.27 0-.54.18-.72.45 0 .09-.81 1.35-3.69 1.35-1.89 0-2.88-.54-3.33-.99l8.01-3.24v2.16zm0-3.78l-9.36 3.78v-2.61l9.36-3.78v2.61zm0-4.32l-9.36 3.78v-3.78h9.36zm-4.68-12.51c1.26 0 2.61-1.17 2.61-3.51 0-.99-.45-1.98-1.08-2.79 1.44-.27 3.15 1.35 3.15 2.79v1.8c0 1.26-.63 3.78-1.35 6.21-.72 2.52-1.35 4.95-1.35 6.48h-3.87c0-1.44-.72-3.87-1.35-6.48-.63-2.43-1.35-4.95-1.35-6.21v-1.8c0-1.44 1.62-3.06 3.15-2.79-.72.81-1.08 1.8-1.08 2.79-.09 2.25 1.26 3.51 2.52 3.51zm-.99-3.51c0-.72.45-1.53.99-2.07.63.54.99 1.26.99 2.07 0 2.52-1.98 2.52-1.98 0zm8.37 9.27c-.27.27-2.07 2.61-2.43 5.13h-1.53c.09-1.26.72-3.69 1.35-6.03.72-2.61 1.35-5.13 1.35-6.57v-2.07c-.18-2.16-2.25-4.14-4.41-4.14-.63 0-1.26.18-1.8.45-.54-.27-1.17-.45-1.8-.45-2.16 0-4.23 1.98-4.41 4.14v2.07c0 1.44.63 3.96 1.35 6.57.63 2.34 1.26 4.77 1.35 6.03h-1.53c-.27-1.98-1.62-4.14-2.43-5.13-3.33-4.14-4.41-6.75-4.41-10.71 0-6.84 5.22-12.15 11.88-12.15 6.66 0 11.88 5.31 11.88 12.15.09 3.96-.99 6.57-4.41 10.71zm9.99-20.25l-.81-1.35-2.97 1.71.81 1.35 2.97-1.71zM14.34 35.71l.81 1.35 2.88-1.71-.81-1.35-2.88 1.71zm0-18.27l2.97 1.71.81-1.35-2.97-1.71-.81 1.35zm31.05 17.91l2.88 1.71.81-1.35L46.2 34c-.27.54-.54.99-.81 1.35z" fill="#fff"/></svg><svg fill="none" viewBox="0 0 64 64" id="turnkey-work3" xmlns="http://www.w3.org/2000/svg"><circle cx="32" cy="32" r="32" fill="#C94B23"/><path d="M31.76 8C18.71 8 8 18.71 8 31.76s10.71 23.76 23.76 23.76 23.76-10.71 23.76-23.76S44.81 8 31.76 8zm0 45.9C19.52 53.9 9.62 44 9.62 31.76s9.9-22.14 22.14-22.14 22.14 9.9 22.14 22.14S44 53.9 31.76 53.9zm0-42.3c-11.07 0-20.16 9-20.16 20.16s9 20.16 20.16 20.16c11.07 0 20.16-9 20.16-20.16S42.83 11.6 31.76 11.6zM13.22 31.76c0-10.26 8.37-18.54 18.54-18.54 4.86 0 9.27 1.89 12.51 4.95l-26.19 26.1a18.515 18.515 0 01-4.86-12.51zM31.76 50.3c-4.86 0-9.27-1.89-12.51-4.95l26.19-26.19c3.06 3.33 4.95 7.74 4.95 12.51-.09 10.35-8.37 18.63-18.63 18.63zm16.65-13.68V35h-2.79c0-.09-.09-.18-.09-.27l2.43-1.44-.81-1.35-2.43 1.44c-.09-.09-.09-.18-.18-.18l1.44-2.43-1.35-.81-1.44 2.43c-.09 0-.18-.09-.27-.09v-2.79H41.3v2.79c-.09 0-.18.09-.27.09l-1.44-2.43-1.35.81 1.44 2.43c-.09.09-.18.09-.18.18l-2.43-1.44-.81 1.35 2.43 1.44c0 .09-.09.18-.09.27h-2.79v1.62h2.79c0 .09.09.18.09.27l-2.43 1.44.81 1.35 2.43-1.44c.09.09.09.18.18.18l-1.44 2.43 1.35.81 1.44-2.43c.09 0 .18.09.27.09v2.79h1.62v-2.79c.09 0 .18-.09.27-.09l1.44 2.43 1.35-.81-1.44-2.43c.09-.09.18-.09.18-.18l2.43 1.44.81-1.35-2.43-1.44c0-.09.09-.18.09-.27h2.79zm-6.3 2.34c-1.71 0-3.15-1.44-3.15-3.15s1.44-3.15 3.15-3.15 3.15 1.44 3.15 3.15-1.44 3.15-3.15 3.15zM22.58 25.64l-1.08-1.08-1.17 1.17v-1.62h-1.62v1.62l-1.17-1.17-1.08 1.08 1.17 1.17h-1.62v1.53h1.62l-1.17 1.17 1.08 1.08 1.17-1.08v1.62h1.53v-1.62l1.17 1.17 1.08-1.08-1.08-1.17h1.62v-1.62h-1.62l1.17-1.17zm-1.17 2.07c0 .99-.81 1.8-1.8 1.8s-1.8-.81-1.8-1.8.81-1.8 1.8-1.8 1.8.81 1.8 1.8zm12.87 15.03l-1.08-1.08-1.17 1.17v-1.62h-1.62v1.62l-1.17-1.17-1.08 1.08 1.17 1.17h-1.62v1.53h1.62l-1.17 1.17 1.08 1.08 1.17-1.08v1.62h1.53v-1.62l1.17 1.17 1.08-1.08-1.08-1.17h1.62v-1.62h-1.62l1.17-1.17zm-1.17 2.07c0 .99-.81 1.8-1.8 1.8s-1.8-.81-1.8-1.8.81-1.8 1.8-1.8 1.8.81 1.8 1.8zm-5.4-28.8c-.54 0-.9.36-.9.9s.36.9.9.9.9-.36.9-.9-.36-.9-.9-.9zm4.5 4.5c-.54 0-.9.36-.9.9s.36.9.9.9.9-.36.9-.9-.36-.9-.9-.9zm2.7-3.6c-.54 0-.9.36-.9.9s.36.9.9.9.9-.36.9-.9-.36-.9-.9-.9zm-9 4.5c-.54 0-.9.36-.9.9s.36.9.9.9.9-.36.9-.9-.36-.9-.9-.9zm1.8 5.4c-.54 0-.9.36-.9.9s.36.9.9.9.9-.36.9-.9-.36-.9-.9-.9zm10.8 18c-.54 0-.9.36-.9.9s.36.9.9.9.9-.36.9-.9-.36-.9-.9-.9zm-19.8-9.9c-.54 0-.9.36-.9.9s.36.9.9.9.9-.36.9-.9-.36-.9-.9-.9zm27-7.2c.54 0 .9-.36.9-.9s-.36-.9-.9-.9-.9.36-.9.9.36.9.9.9z" fill="#fff"/></svg><svg fill="none" viewBox="0 0 64 64" id="turnkey-work4" xmlns="http://www.w3.org/2000/svg"><circle cx="32" cy="32" r="32" fill="#C94B23"/><path d="M15.21 41.69l.63 1.44c.54-.27 1.08-.45 1.62-.63l-.54-1.44c-.54.18-1.17.36-1.71.63zm-3.24-21.51l.9 1.35c.45-.36.99-.63 1.53-.9l-.81-1.35c-.63.18-1.17.54-1.62.9zm0 11.7l.9 1.35c.45-.36.99-.63 1.53-.9l-.81-1.35c-.63.18-1.17.54-1.62.9zm3.24-1.89l.63 1.44c.54-.27 1.08-.45 1.62-.63l-.54-1.44c-.54.18-1.17.36-1.71.63zM9 45.83L10.08 47s.45-.45 1.35-1.08l-.99-1.26c-.9.63-1.44 1.17-1.44 1.17zm6.21-27.54l.63 1.44c.54-.27 1.08-.45 1.62-.63l-.54-1.44c-.54.18-1.17.36-1.71.63zM9 34.13l1.08 1.17s.45-.45 1.35-1.08l-.99-1.26c-.9.63-1.44 1.17-1.44 1.17zm0-11.7l1.08 1.17s.45-.45 1.35-1.08l-.99-1.26c-.9.63-1.44 1.17-1.44 1.17zm2.97 21.15l.9 1.35c.45-.36.99-.63 1.53-.9l-.81-1.35c-.63.18-1.17.54-1.62.9zm13.95-25.11c.54.09 1.17.18 1.71.27l.36-1.53c-.63-.09-1.17-.27-1.8-.27l-.27 1.53zm-3.42-.27c.63 0 1.17 0 1.71.09l.09-1.53c-.63 0-1.17-.09-1.89-.09l.09 1.53zm3.42 11.97c.54.09 1.17.18 1.71.27l.36-1.53c-.63-.09-1.17-.27-1.8-.27l-.27 1.53zm0 11.7c.54.09 1.17.18 1.71.27l.36-1.53c-.63-.09-1.17-.27-1.8-.27l-.27 1.53zm26.55-7.65l2.16-6.12c.09-.27.09-.54-.09-.72-.18-.18-.36-.36-.63-.36l-6.3.18v1.53l4.14-.09c-1.8 1.26-5.94 3.96-9.81 3.96-2.79 0-4.77-.45-6.48-1.08v-9.99c1.71.54 3.78.99 6.48.99 3.96 0 8.1-2.34 10.17-3.87l-1.08 3.33 1.53.54 2.16-6.12c.09-.27.09-.54-.09-.72-.18-.18-.36-.36-.63-.36l-6.3.18v1.53l4.14-.09c-1.8 1.26-5.94 3.96-9.81 3.96-2.79 0-4.77-.45-6.48-1.08v-7.2c0-.9-.72-1.62-1.62-1.62h-2.7c-.9 0-1.62.72-1.62 1.62v5.49l-.27 1.08c.09 0 .18.09.27.09v10.53l-.27 1.08c.09 0 .18.09.27.09v10.53l-.27 1.08c.09 0 .18.09.27.09v8.64c0 .9.72 1.62 1.62 1.62h2.7c.9 0 1.62-.72 1.62-1.62v-6.39c1.71.54 3.78.99 6.48.99 3.96 0 8.1-2.34 10.17-3.87l-1.17 3.33 1.53.54 2.16-6.12c.09-.27.09-.54-.09-.72-.18-.18-.36-.36-.63-.36l-6.3.18v1.53l4.14-.09c-1.8 1.26-5.94 3.96-9.81 3.96-2.79 0-4.77-.45-6.48-1.08v-9.99c1.71.54 3.78.99 6.48.99 3.96 0 8.1-2.34 10.17-3.87l-1.17 3.33 1.44.54zm-18.54 17.1h-2.7v-38.7h2.7v38.7zM18.72 40.43l.36 1.53c.54-.18 1.17-.27 1.71-.27l-.18-1.53c-.63 0-1.26.18-1.89.27zm0-11.7l.36 1.53c.54-.18 1.17-.27 1.71-.27l-.18-1.53c-.63 0-1.26.18-1.89.27zm3.78 1.17c.63 0 1.17 0 1.71.09l.09-1.53c-.63 0-1.17-.09-1.89-.09l.09 1.53zm-3.78-12.87l.36 1.53c.54-.18 1.17-.27 1.71-.27l-.18-1.53c-.63 0-1.26.18-1.89.27zM22.5 41.6c.63 0 1.17 0 1.71.09l.09-1.53c-.63 0-1.17-.09-1.89-.09l.09 1.53z" fill="#fff"/></svg><svg fill="none" viewBox="0 0 64 64" id="turnkey-work5" xmlns="http://www.w3.org/2000/svg"><circle cx="32" cy="32" r="32" fill="#C94B23"/><path d="M32.5 10C20.12 10 10 20.12 10 32.5S20.12 55 32.5 55 55 44.88 55 32.5 44.88 10 32.5 10zm0 43.494c-11.626 0-20.994-9.451-20.994-20.994S20.874 11.506 32.5 11.506A20.954 20.954 0 0153.494 32.5 20.954 20.954 0 0132.5 53.494zm5.604-15.892c-1.505-4.935-4.517-11.877-4.935-12.964-.083-.251-.418-.419-.669-.419-.335 0-.585.168-.67.418-.417 1.004-3.428 8.03-4.934 12.965H13.93l.335.92c2.51 7.946 9.87 13.132 18.318 13.132 8.448 0 15.808-5.186 18.317-13.132l.335-.92H38.104zM32.5 26.812c1.84 4.517 5.019 12.714 5.019 14.889a5.07 5.07 0 01-5.103 5.102 5.07 5.07 0 01-5.102-5.102c.084-2.175 3.262-10.372 5.186-14.889zm.084 23.337c-7.445 0-14.052-4.35-16.645-11.125h10.455c-.334 1.087-.502 2.091-.502 2.677a6.533 6.533 0 006.524 6.524 6.533 6.533 0 006.525-6.524c0-.586-.168-1.59-.502-2.677h10.79c-2.593 6.859-9.201 11.125-16.645 11.125zM19.954 24.72l2.174 1.59.837-1.172-2.091-1.505c.669-.837 1.505-1.59 2.342-2.175l.836 1.088 1.171-.837-.753-1.087c.92-.586 1.84-1.088 2.844-1.422l.418 1.254 1.422-.418-.418-1.255a19.869 19.869 0 013.095-.501v2.509h1.505v-2.677c1.088 0 2.175.168 3.179.419l-.586 1.421 1.422.419.419-1.422c1.003.334 2.007.836 2.927 1.338l-.92 1.338 1.171.837.92-1.255a20.43 20.43 0 012.426 2.259l-2.342 1.672.836 1.171 2.342-1.756c.084.084.084.167.167.25l1.171-.836c-3.178-4.6-8.364-7.36-13.968-7.36-5.604 0-10.79 2.76-13.968 7.36l1.421.753c0 .084 0 0 0 0zM32.5 44.963c1.757 0 3.262-1.422 3.262-3.262 0-1.757-1.422-3.262-3.262-3.262s-3.262 1.422-3.262 3.262c0 1.756 1.506 3.262 3.262 3.262zm0-5.019c1.004 0 1.757.837 1.757 1.757 0 1.004-.837 1.756-1.757 1.756-.92 0-1.756-.836-1.756-1.756 0-1.004.752-1.757 1.756-1.757z" fill="#fff"/></svg><svg fill="none" viewBox="0 0 64 64" id="turnkey-work6" xmlns="http://www.w3.org/2000/svg"><circle cx="32" cy="32" r="32" fill="#C94B23"/><path d="M36.31 19.81c-.36-.18-.72-.09-.99.18L24.88 32.86c-.18.27-.27.54-.09.81.09.27.36.45.72.45l4.77.09-3.42 8.82c-.18.36 0 .72.36.99.09.09.27.09.36.09.18 0 .45-.09.63-.27l10.98-12.6c.18-.27.27-.54.09-.81-.09-.27-.45-.45-.72-.45h-5.4l3.51-9.18c.18-.36 0-.72-.36-.99zm-5.04 10.62c-.09.27-.09.54.09.72.18.18.36.36.63.36h4.77l-6.93 8.1 2.25-5.76c.09-.27.09-.54-.09-.72-.18-.18-.36-.36-.63-.36h-4.23l6.3-7.83-2.16 5.49zm25.92.72c-.18-.27-.45-.45-.72-.45h-1.98C53.59 19 43.96 10 32.17 10c-7.74 0-14.85 3.96-18.99 10.53l1.35.81c3.87-6.12 10.44-9.72 17.64-9.72 11.16 0 20.34 8.73 20.79 19.98 0 .45.36.72.81.72h1.17l-2.97 4.14L49 32.32h1.08c.18 0 .45-.09.54-.27.18-.18.27-.36.18-.54-.36-10.08-8.64-17.91-18.63-17.91-3.06 0-6.12.72-8.73 2.16l.72 1.35c2.43-1.26 5.22-1.98 8.01-1.98 8.91 0 16.29 6.75 17.1 15.57h-1.8c-.27 0-.54.18-.72.45-.09.27-.09.54.09.81l4.5 6.3c.18.18.36.36.63.36s.45-.09.63-.36l4.5-6.3c.18-.27.18-.54.09-.81zM32.08 53.29c-11.16 0-20.34-8.73-20.79-19.98 0-.45-.36-.72-.81-.72H9.31l2.97-4.14 2.97 4.14h-1.08c-.18 0-.45.09-.54.27-.18.18-.27.36-.18.54.54 9.99 8.73 17.82 18.72 17.82 3.06 0 6.12-.72 8.73-2.16l-.81-1.35c-2.43 1.26-5.22 1.98-8.01 1.98-8.91 0-16.29-6.75-17.1-15.57h1.8c.27 0 .54-.18.72-.45.09-.27.09-.54-.09-.81l-4.5-6.3c-.18-.18-.36-.36-.63-.36s-.45.09-.63.36l-4.5 6.3c-.18.27-.18.54-.09.81s.45.45.72.45h1.98c.9 11.7 10.53 20.7 22.32 20.7 7.74 0 14.85-3.96 18.99-10.53l-1.35-.81c-3.87 6.12-10.44 9.81-17.64 9.81z" fill="#fff"/></svg><svg fill="none" viewBox="0 0 64 64" id="turnkey-work7" xmlns="http://www.w3.org/2000/svg"><circle cx="32" cy="32" r="32" fill="#C94B23"/><path d="M39.62 23.29H23.6v14.22h16.02V23.29zM38 35.89H25.22V24.91h12.87v10.98H38zm-1.98-9.09H34.4v7.11h1.62V26.8zm-3.6 1.98H30.8V34h1.62v-5.22zm-3.6 1.62H27.2V34h1.62v-3.6zm2.79 12.69c-2.43 0-4.41 1.98-4.41 4.41s1.98 4.41 4.41 4.41 4.41-1.98 4.41-4.41-1.98-4.41-4.41-4.41zm0 7.2c-1.53 0-2.79-1.26-2.79-2.79s1.26-2.79 2.79-2.79 2.79 1.26 2.79 2.79-1.26 2.79-2.79 2.79zm-3.6-10.8h-4.5v1.62h4.5v-1.62zm7.2 1.62h4.5v-1.62h-4.5v1.62zm-1.8 0v-1.62h-3.6v1.62h3.6zm8.19-21.42H21.62c-.9 0-1.62.72-1.62 1.71v26.1c0 4.86 5.22 8.91 11.61 8.91s11.61-3.96 11.61-8.91V21.4c0-.9-.72-1.71-1.62-1.71zm0 27.81c0 4.05-4.5 7.29-9.99 7.29s-9.99-3.24-9.99-7.29V21.4v-.09h19.89s.09 0 .09.09v26.1zM31.61 8.62c3.51 0 6.75.99 9.45 2.97l.9-1.26C38.99 8.17 35.39 7 31.61 7c-3.78 0-7.38 1.08-10.35 3.15l.9 1.35c2.7-1.89 5.94-2.88 9.45-2.88zm8.01 4.32c-2.34-1.53-5.04-2.34-8.01-2.34-2.97 0-5.67.81-8.01 2.34l.9 1.35c1.98-1.35 4.5-2.07 7.11-2.07 2.61 0 5.04.72 7.11 2.07l.9-1.35zm-13.5 2.7l.81 1.35c1.35-.81 2.88-1.26 4.68-1.26 1.8 0 3.33.45 4.68 1.26l.81-1.35c-1.62-.9-3.42-1.44-5.49-1.44-2.07 0-3.87.54-5.49 1.44z" fill="#fff"/></svg><svg fill="none" viewBox="0 0 32 32" id="vk" xmlns="http://www.w3.org/2000/svg"><path d="M10.699 12.87c.085 4.16 2.165 6.655 5.813 6.655h.213v-2.378c1.339.133 2.352 1.114 2.758 2.378h1.893a5.265 5.265 0 00-2.736-3.338 5.08 5.08 0 002.336-3.323h-1.717c-.374 1.323-1.483 2.523-2.534 2.635v-2.63h-1.722v4.608c-1.067-.266-2.411-1.557-2.47-4.608H10.7z" fill="#000"/><path fill-rule="evenodd" clip-rule="evenodd" d="M16 0c8.837 0 16 7.163 16 16s-7.163 16-16 16S0 24.837 0 16 7.163 0 16 0zM8 15.68c0-3.621 0-5.43 1.12-6.56C10.256 8 12.064 8 15.68 8h.64c3.621 0 5.43 0 6.56 1.12C24 10.256 24 12.064 24 15.68v.64c0 3.621 0 5.43-1.12 6.56C21.744 24 19.936 24 16.32 24h-.64c-3.621 0-5.43 0-6.56-1.12C8 21.744 8 19.936 8 16.32v-.64z" fill="#000"/></svg><svg fill="none" viewBox="0 0 32 32" id="whatsapp" xmlns="http://www.w3.org/2000/svg"><path fill-rule="evenodd" clip-rule="evenodd" d="M12.6 21.7c1 .6 2.2.9 3.4.9 3.7 0 6.6-3 6.6-6.5 0-1.8-.6-3.4-1.9-4.7-1.3-1.2-2.9-1.9-4.7-1.9-3.6 0-6.6 3-6.6 6.6 0 1.2.3 2.4 1 3.5l.2.3-.7 2.4 2.5-.7.2.1zm5.6-4.7c.2 0 1.2.5 1.4.6.031.016.062.029.093.042.167.07.323.136.407.558.1 0 .1.4-.1.9-.1.4-.9.9-1.3.9-.068 0-.133.006-.202.012-.34.03-.786.07-2.198-.512-1.753-.701-2.968-2.4-3.309-2.877-.048-.068-.079-.11-.091-.123-.017-.034-.052-.088-.097-.16-.221-.35-.703-1.11-.703-1.94 0-1 .5-1.5.7-1.7.2-.2.4-.2.5-.2h.4c.1 0 .3 0 .4.3.2.4.6 1.4.6 1.5 0 .033.011.067.022.1.023.067.045.133-.022.2-.05.05-.075.1-.1.15-.025.05-.05.1-.1.15l-.3.3c-.1.1-.2.2-.1.4s.5.9 1.1 1.4c.675.59 1.208.825 1.478.944.05.022.09.04.122.056.2 0 .3 0 .4-.1.05-.1.175-.25.3-.4.125-.15.25-.3.3-.4.1-.2.2-.2.4-.1z" fill="#000"/><path fill-rule="evenodd" clip-rule="evenodd" d="M0 16C0 7.163 7.163 0 16 0s16 7.163 16 16-7.163 16-16 16S0 24.837 0 16zm16-8c2.1 0 4.1.8 5.6 2.3 1.5 1.5 2.4 3.5 2.4 5.6 0 4.4-3.6 8-8 8-1.3 0-2.6-.4-3.8-1L8 24l1.1-4C8.4 18.8 8 17.4 8 16c0-4.4 3.6-8 8-8z" fill="#000"/></svg></svg>